<?xml version="1.0" encoding="UTF-8" standalone="no"?><!DOCTYPE svg PUBLIC "-//W3C//DTD SVG 1.1//EN" "http://www.w3.org/Graphics/SVG/1.1/DTD/svg11.dtd"><svg width="100%" height="100%" viewBox="0 0 654 413" version="1.1" xmlns="http://www.w3.org/2000/svg" xmlns:xlink="http://www.w3.org/1999/xlink" xml:space="preserve" xmlns:serif="http://www.serif.com/" style="fill-rule:evenodd;clip-rule:evenodd;stroke-linejoin:round;stroke-miterlimit:2;"><clipPath id="_clip1"><rect x="0" y="0" width="653.834" height="412.463"/></clipPath><g clip-path="url(#_clip1)"><g id="layer1"><g id="g59"><path id="path57" d="M298.92,87.466c-0.303,-0.79 0.029,-1.491 0.758,-1.595c0.928,-0.131 1.587,0.696 1.172,1.471c-0.348,0.651 -1.695,0.738 -1.93,0.124l-0,0Z" style="fill:#fff;fill-rule:nonzero;"/><path id="path56" d="M524.779,98.624c-0.114,-0.114 -0.207,-3.372 -0.207,-7.24l0,-7.034l-5.902,0l-0,-4.722l18.002,0l0,4.722l-5.892,0l-0.158,14.313l-2.818,0.084c-1.55,0.046 -2.911,-0.009 -3.025,-0.123l-0,0Z" style="fill:#fff;fill-rule:nonzero;"/><path id="path55" d="M498.011,89.231l0,-9.603l5.575,0l6.968,10.182l0.081,-5.091l0.08,-5.091l5.602,0l-0.156,19.035l-5.424,0.17l-3.485,-5.102l-3.486,-5.102l-0.295,10.034l-5.46,0.17l0,-9.602Z" style="fill:#fff;fill-rule:nonzero;"/><path id="path54" d="M478.73,98.614c-0.108,-0.108 -0.197,-4.424 -0.197,-9.591l0,-9.395l15.937,0l-0,4.132l-9.739,-0l-0,2.951l9.149,-0l-0,3.837l-9.149,-0l-0,3.541l10.034,-0l-0,4.722l-7.919,-0c-4.356,-0 -8.008,-0.089 -8.116,-0.197l0,0Z" style="fill:#fff;fill-rule:nonzero;"/><path id="path53" d="M463.309,98.474c-0.121,-0.195 -1.778,-4.483 -3.683,-9.527l-3.463,-9.171l2.97,-0.085c1.634,-0.046 3.067,0.02 3.186,0.148c0.118,0.127 1.116,3.127 2.218,6.667c1.102,3.539 2.09,6.261 2.196,6.049c0.106,-0.211 1.045,-3.205 2.086,-6.652l1.894,-6.268l3.045,-0.003c2.769,-0.004 3.029,0.043 2.872,0.513c-0.094,0.284 -1.678,4.567 -3.518,9.517l-3.346,9.001l-3.119,0.084c-2.194,0.059 -3.183,-0.022 -3.338,-0.273l0,0Z" style="fill:#fff;fill-rule:nonzero;"/><path id="path52" d="M438.894,98.619c-0.111,-0.111 -0.202,-4.429 -0.202,-9.596l0,-9.395l15.937,0l-0,4.132l-9.739,-0l-0,2.951l9.149,-0l-0,3.837l-9.149,-0l-0,3.527l9.886,0.162l0,4.426l-7.84,0.079c-4.312,0.043 -7.931,-0.012 -8.042,-0.123l0,-0Z" style="fill:#fff;fill-rule:nonzero;"/><path id="path51" d="M339.729,98.614c-0.108,-0.108 -0.196,-2.963 -0.196,-6.345l-0,-6.148l1.77,-0l0,2.224c0,2.18 0.013,2.217 0.632,1.885c2.641,-1.413 5.555,-0.533 6.637,2.005c0.956,2.245 0.017,4.959 -2.068,5.968c-1.554,0.752 -2.693,0.769 -4.082,0.061c-1.044,-0.532 -1.076,-0.532 -1.216,0c-0.138,0.529 -1.076,0.751 -1.477,0.35l0,0Zm6.699,-2.501c0.741,-0.814 0.826,-1.094 0.693,-2.278c-0.197,-1.751 -1.217,-2.697 -2.906,-2.697c-3.082,-0 -4.083,4.345 -1.323,5.742c1.249,0.632 2.512,0.358 3.536,-0.767Z" style="fill:#fff;fill-rule:nonzero;"/><path id="path50" d="M325.078,98.294c-2.997,-1.506 -3.236,-6.319 -0.401,-8.071c1.424,-0.88 3.643,-0.888 4.821,-0.018l0.886,0.655l0,-4.739l1.782,-0l-0.159,12.542l-0.811,0.094c-0.654,0.075 -0.812,-0.026 -0.812,-0.517l-0,-0.611l-1.102,0.591c-1.358,0.727 -2.851,0.754 -4.204,0.074l-0,-0Zm4.169,-1.736c0.868,-0.786 1.235,-2.311 0.842,-3.501c-1.032,-3.127 -5.607,-2.288 -5.607,1.029c-0,1.572 0.41,2.311 1.572,2.831c1.077,0.481 2.433,0.329 3.193,-0.359l-0,0Z" style="fill:#fff;fill-rule:nonzero;"/><path id="path49" d="M314.847,98.488c-0.512,-0.148 -1.335,-0.73 -1.83,-1.295c-1.627,-1.852 -1.597,-4.563 0.07,-6.229c1.66,-1.66 3.978,-1.873 5.996,-0.551c0.796,0.522 1.841,2.554 1.851,3.602c0.008,0.654 -0.052,0.664 -3.683,0.664c-2.029,0 -3.689,0.075 -3.689,0.167c0,0.363 0.713,1.475 1.155,1.804c0.924,0.687 2.382,0.749 3.584,0.154c1.077,-0.532 1.174,-0.536 1.6,-0.066c0.41,0.453 0.403,0.547 -0.065,0.972c-1.155,1.044 -3.051,1.34 -4.989,0.778l-0,0Zm4.323,-5.151c-0,-0.09 -0.195,-0.538 -0.432,-0.998c-0.494,-0.954 -0.981,-1.201 -2.372,-1.201c-1.391,-0 -1.878,0.247 -2.372,1.201c-0.237,0.46 -0.432,0.908 -0.432,0.998c0,0.089 1.262,0.162 2.804,0.162c1.542,-0 2.804,-0.073 2.804,-0.162Z" style="fill:#fff;fill-rule:nonzero;"/><path id="path48" d="M302.949,98.156c0.009,-0.392 1.055,-1.968 2.509,-3.772l2.497,-3.099l-2.435,-0.147c-2.248,-0.136 -2.442,-0.199 -2.529,-0.812c-0.093,-0.658 -0.063,-0.664 3.615,-0.664c3.537,0 3.71,0.028 3.71,0.602c-0,0.331 -1.145,2.024 -2.544,3.763l-2.544,3.161l2.711,0.085c2.607,0.082 2.707,0.11 2.617,0.738c-0.089,0.629 -0.226,0.655 -3.855,0.735c-3.747,0.082 -3.763,0.08 -3.752,-0.59l0,-0Z" style="fill:#fff;fill-rule:nonzero;"/><path id="path47" d="M299.101,94.256l0,-4.594l1.787,0l-0.163,9.001l-1.623,0.187l-0.001,-4.594Z" style="fill:#fff;fill-rule:nonzero;"/><path id="path46" d="M287.493,98.614c-0.108,-0.108 -0.196,-2.167 -0.196,-4.574l-0,-4.378l0.885,0c0.599,0 0.885,0.147 0.885,0.453c0,0.372 0.114,0.392 0.632,0.115c2.063,-1.104 4.136,-0.858 5.397,0.641c0.723,0.859 0.759,1.07 0.759,4.441l0,3.538l-1.623,-0.187l-0.148,-3.345c-0.166,-3.765 -0.404,-4.188 -2.343,-4.171c-2.087,0.019 -2.674,1.081 -2.674,4.841c0,2.761 -0.017,2.823 -0.688,2.823c-0.379,-0 -0.777,-0.089 -0.886,-0.197l0,0Z" style="fill:#fff;fill-rule:nonzero;"/><path id="path45" d="M277.95,98.381c-1.078,-0.469 -1.577,-1.244 -1.563,-2.428c0.021,-1.731 1.228,-2.454 4.103,-2.454c1.888,0 2.085,-0.056 2.085,-0.59c-0,-1.558 -2.601,-2.335 -4.5,-1.344c-0.749,0.391 -0.836,0.375 -1.144,-0.2c-0.271,-0.506 -0.237,-0.693 0.179,-0.998c0.838,-0.612 3.163,-0.991 4.39,-0.714c2.309,0.521 2.931,1.905 2.79,6.207c-0.087,2.652 -0.128,2.809 -0.757,2.898c-0.387,0.055 -0.736,-0.089 -0.834,-0.344c-0.147,-0.384 -0.294,-0.387 -1.17,-0.021c-1.244,0.52 -2.365,0.516 -3.579,-0.012l0,0Zm3.847,-1.657c0.459,-0.361 0.778,-0.906 0.778,-1.328c-0,-0.673 -0.1,-0.717 -1.643,-0.717c-0.903,0 -1.899,0.138 -2.213,0.306c-0.638,0.341 -0.759,1.454 -0.217,1.996c0.568,0.568 2.431,0.423 3.295,-0.257l0,-0Z" style="fill:#fff;fill-rule:nonzero;"/><path id="path44" d="M258.08,98.85l0,-9.187l0.738,-0c0.559,-0 0.738,0.154 0.738,0.636c-0,0.609 0.025,0.614 0.568,0.121c0.313,-0.283 1.044,-0.622 1.623,-0.753c1.013,-0.228 1.055,-0.205 1.055,0.58c-0,0.655 -0.162,0.85 -0.812,0.983c-1.78,0.365 -1.979,0.759 -2.139,4.236l-0.148,3.198l-1.623,0.186Z" style="fill:#fff;fill-rule:nonzero;"/><path id="path43" d="M246.718,98.455c-5.088,-1.778 -5.525,-8.711 -0.704,-11.171c1.337,-0.682 4.232,-0.772 5.657,-0.175c1.491,0.624 3.052,2.559 3.409,4.226c1.033,4.818 -3.618,8.778 -8.362,7.12l-0,0Zm4.68,-1.975c2.833,-1.867 2.603,-6.264 -0.407,-7.776c-3.07,-1.543 -6.489,0.581 -6.484,4.027c0.003,2.693 1.66,4.306 4.424,4.306c1.095,-0 1.898,-0.181 2.467,-0.557l0,0Z" style="fill:#fff;fill-rule:nonzero;"/><path id="path42" d="M544.345,98.823c-3.455,-0.652 -5.165,-2.188 -5.855,-5.261l-0.265,-1.179l1.068,-0.176c0.587,-0.097 1.879,-0.178 2.87,-0.18c1.769,-0.003 1.807,0.014 2.068,0.926c0.595,2.074 3.673,2.894 5.013,1.336c1.3,-1.511 0.327,-2.56 -3.216,-3.468c-2.806,-0.719 -4.05,-1.249 -5.199,-2.216c-2.481,-2.087 -2.427,-5.617 0.117,-7.715c1.409,-1.161 3.117,-1.631 6.002,-1.649c3.033,-0.02 4.877,0.522 6.258,1.839c1.048,0.999 2.092,3.336 1.676,3.751c-0.1,0.1 -1.369,0.25 -2.819,0.333c-2.509,0.143 -2.646,0.119 -2.839,-0.489c-0.49,-1.545 -2.513,-2.298 -4.013,-1.495c-0.715,0.383 -0.749,1.646 -0.054,2.012c0.284,0.149 1.711,0.568 3.172,0.931c5.799,1.44 7.604,3.269 7.155,7.252c-0.268,2.377 -2.113,4.421 -4.646,5.147c-1.503,0.431 -4.957,0.591 -6.493,0.301l-0,0Z" style="fill:#fff;fill-rule:nonzero;"/><path id="path41" d="M350.231,101.753c-0.684,-0.275 -0.829,-0.75 -0.423,-1.389c0.179,-0.283 0.435,-0.289 1.132,-0.025c1.142,0.431 1.726,0.203 2.293,-0.894c0.438,-0.846 0.399,-0.988 -1.292,-4.737c-2.351,-5.209 -2.31,-5.045 -1.245,-5.045c0.834,-0 0.938,0.153 2.307,3.389c0.788,1.864 1.5,3.389 1.581,3.389c0.081,-0 0.792,-1.525 1.581,-3.389c1.36,-3.216 1.477,-3.389 2.291,-3.389l0.858,-0l-0.463,1.106c-2.454,5.874 -4.449,9.914 -5.215,10.558c-0.905,0.762 -2.175,0.921 -3.405,0.426l-0,0Z" style="fill:#fff;fill-rule:nonzero;"/><path id="path40" d="M266.528,101.642c-1.544,-0.575 -1.788,-0.861 -1.381,-1.62c0.308,-0.575 0.397,-0.591 1.144,-0.205c1.293,0.669 2.869,0.855 4.019,0.475c1.156,-0.381 1.641,-1.033 1.641,-2.207c-0,-0.752 -0.017,-0.757 -0.871,-0.314c-1.239,0.641 -3.497,0.574 -4.666,-0.139c-2.011,-1.226 -2.71,-3.811 -1.593,-5.893c1.089,-2.03 4.238,-2.796 6.358,-1.545c1.044,0.616 1.067,0.617 1.067,0.049c-0,-0.422 0.201,-0.58 0.738,-0.58l0.737,-0l0,4.583c0,5.065 -0.25,6.147 -1.63,7.051c-1.098,0.72 -4.063,0.904 -5.563,0.345l-0,0Zm4.515,-5.661c0.764,-0.642 0.908,-0.972 0.908,-2.08c-0,-1.791 -1.009,-2.763 -2.87,-2.763c-1.052,0 -1.476,0.169 -2.17,0.863c-2.656,2.656 1.242,6.412 4.132,3.98Z" style="fill:#fff;fill-rule:nonzero;"/><path id="path39" d="M368.566,110.782c-3.437,-1.496 -2.875,-6.899 1.114,-10.697c2.212,-2.106 6.822,-4.19 10.37,-4.688c1.277,-0.179 1.477,-0.315 2.066,-1.417c0.605,-1.132 0.662,-1.719 0.799,-8.214c0.086,-4.06 0.272,-7.118 0.443,-7.29c0.197,-0.197 0.271,0.709 0.223,2.716c-0.038,1.656 -0.106,4.937 -0.147,7.29c-0.069,3.853 -0.144,4.393 -0.752,5.423c-0.372,0.629 -0.61,1.21 -0.529,1.291c0.378,0.378 1.146,-0.344 1.721,-1.62c0.577,-1.278 0.649,-2.073 0.797,-8.783c0.181,-8.17 0.115,-7.879 2.342,-10.293c1.313,-1.424 1.323,-1.447 0.272,-0.661c-2.56,1.918 -5.627,2.418 -9.387,1.529c-2.446,-0.577 -4.224,-0.581 -5.327,-0.011c-1.309,0.677 -1.057,0.081 0.826,-1.956c1.889,-2.041 3.992,-3.209 5.789,-3.213c0.627,-0.002 2.287,0.276 3.689,0.617c2.513,0.612 5.183,0.644 7.52,0.09l0.84,-0.199l-0.543,0.999c-0.449,0.828 -0.559,1.829 -0.641,5.868c-0.061,3.006 0.005,4.756 0.175,4.574c0.151,-0.162 1.238,-1.725 2.416,-3.473c4.504,-6.683 8.63,-8.687 17.276,-8.393c2.828,0.096 5.435,0.398 8.263,0.957c5.559,1.1 9.767,1.167 11.612,0.187c0.706,-0.374 1.333,-0.631 1.394,-0.57c0.199,0.198 -0.444,2.12 -1.026,3.069c-0.312,0.508 -1.01,1.259 -1.552,1.668c-1.066,0.806 -3.687,1.686 -5.021,1.686l-0.832,-0l-0,20.348l0.76,-0.289c2.297,-0.873 4.762,-3.428 6.001,-6.22c0.502,-1.133 0.578,-1.198 0.596,-0.516c0.038,1.403 -1.14,4.582 -2.392,6.457c-1.417,2.122 -3.884,4.072 -6.374,5.038c-1.296,0.502 -2.31,0.656 -4.346,0.658c-3.092,0.002 -5.254,-0.649 -7.495,-2.26l-1.416,-1.017l-2.48,1.585c-1.364,0.871 -2.636,1.587 -2.828,1.59c-0.191,0.003 -1.648,-0.598 -3.238,-1.335c-2.102,-0.976 -3.234,-1.711 -4.152,-2.697l-1.263,-1.356l-2.963,2.735l-2.964,2.735l-1.98,-0.909c-2.571,-1.18 -4.108,-1.513 -6.996,-1.516c-5.092,-0.004 -10.037,1.941 -11.676,4.593c-0.735,1.189 -0.761,3.556 -0.049,4.435c0.624,0.77 1.594,1.289 2.409,1.289c0.335,0 0.61,0.133 0.61,0.295c-0,0.407 -0.853,0.351 -1.955,-0.129l0.001,0Zm38.411,-12.603c-2.945,-3.501 -3.88,-9.553 -2.216,-14.353c0.773,-2.229 2.776,-5.038 4.463,-6.26c1.284,-0.931 1.858,-0.973 1.071,-0.079c-1.833,2.081 -2.84,6.387 -2.314,9.888c0.536,3.564 3.373,8.534 4.165,7.297c0.713,-1.113 0.868,-3.05 0.87,-10.845l0.001,-8.345l-0.664,-0.251c-2.702,-1.023 -6.184,-1.633 -9.37,-1.642c-3.116,-0.01 -3.529,0.056 -5.045,0.801c-1.919,0.943 -3.397,2.296 -4.858,4.446l-1.04,1.53l1.254,1.033c2.977,2.453 2.8,2.142 4.495,7.896c0.872,2.963 1.809,5.727 2.081,6.142c0.565,0.863 6.05,3.669 7.171,3.669l0.717,0l-0.781,-0.927Zm-13.001,-1.988c-0.333,-0.85 -2.207,-7.526 -2.207,-7.863c-0,-0.179 -0.399,-0.707 -0.886,-1.174l-0.885,-0.848l-0.002,1.162c-0.004,2.806 -1.602,5.249 -4.523,6.918l-1.439,0.822l1.461,0.313c2.151,0.461 4.529,1.418 5.532,2.224l0.882,0.71l1.127,-0.893c0.778,-0.616 1.069,-1.041 0.94,-1.371l0,-0Zm26.821,1.842l1.369,-0.187l-0,-20.578l-2.066,-0l-0.013,5.828c-0.012,6.296 -0.178,7.224 -1.61,9.102c-0.708,0.928 -3.121,2.878 -4.753,3.84c-0.508,0.299 -0.477,0.363 0.398,0.816c1.064,0.55 3.732,1.318 4.683,1.348c0.342,0.01 1.239,-0.065 1.992,-0.169l-0,0Zm-6.894,-3.67l0.737,-1.307l0,-8.553c0,-7.804 -0.043,-8.562 -0.5,-8.651c-0.459,-0.089 -0.507,0.611 -0.59,8.554c-0.085,8.112 -0.129,8.728 -0.713,9.897c-1.044,2.088 -0.11,2.141 1.066,0.06l-0,-0Z" style="fill:#fff;fill-rule:nonzero;"/><path id="path38" d="M242.734,171.441l-0,-44.346l11.436,0.125c9.047,0.1 11.744,0.219 12.911,0.57c5.806,1.747 8.663,5.696 8.356,11.549c-0.211,4.022 -1.997,6.711 -5.506,8.294l-1.227,0.553l1.669,0.679c2.224,0.904 3.589,2.044 4.758,3.977c1.293,2.138 1.613,3.455 1.603,6.616c-0.017,5.558 -2.551,9.122 -7.927,11.153c-1.662,0.628 -2.174,0.655 -13.899,0.741l-12.174,0.089Zm21.576,-7.568c2.654,-0.936 3.918,-2.837 3.917,-5.89c-0.002,-3.218 -1.171,-5.01 -3.949,-6.053c-0.681,-0.255 -3.121,-0.432 -7.157,-0.517l-6.124,-0.13l0,13.045l6.013,-0c4.658,-0 6.303,-0.103 7.3,-0.455l0,0Zm-1.474,-19.648c4.023,-0.863 5.779,-5.511 3.426,-9.067c-1.345,-2.033 -2.179,-2.248 -9.141,-2.356l-6.124,-0.095l0,11.848l5.15,-0c2.833,-0 5.843,-0.149 6.689,-0.33l0,-0Z" style="fill:#1182aa;fill-opacity:0.99;fill-rule:nonzero;"/><path id="path37" d="M426.593,149.417l-0,-22.289l9.863,0.162l7.939,18.519c4.372,10.2 8.102,18.519 8.303,18.519c0.2,-0 0.617,-0.28 0.926,-0.621c0.538,-0.594 0.566,-1.406 0.656,-18.593l0.094,-17.971l8.244,-0l-0.168,37.922l-0.675,1.67c-0.785,1.941 -2.636,3.809 -4.367,4.406c-0.755,0.26 -2.621,0.402 -5.38,0.408l-4.224,0.008l-6.4,-14.903l-6.4,-14.904l-0.153,29.955l-8.258,-0l-0,-22.288Z" style="fill:#fff;fill-rule:nonzero;"/><rect id="path36" x="410.066" y="127.143" width="8.263" height="44.563" style="fill:#fff;fill-rule:nonzero;"/><path id="path35" d="M368.454,149.432l0,-22.289l8.551,-0l0.155,19.852l16.22,-19.852l9.939,-0l-1.784,2.139c-0.981,1.177 -4.291,5.128 -7.356,8.78l-5.574,6.64l1.066,0.446c3.044,1.274 4.778,2.999 6.394,6.357c0.867,1.804 6.918,19.268 6.918,19.968c-0,0.137 -1.875,0.212 -4.168,0.167l-4.167,-0.082l-2.745,-8.013c-3.058,-8.924 -3.238,-9.344 -4.582,-10.658c-0.784,-0.767 -3.019,-1.84 -3.83,-1.84c-0.112,0 -1.583,1.666 -3.268,3.703l-3.063,3.702l-0.295,13.106l-8.411,0.163l0,-22.289Z" style="fill:#fff;fill-rule:nonzero;"/><path id="path34" d="M325.662,149.417l0,-22.289l9.825,0.162l7.903,18.445c4.855,11.332 8.071,18.48 8.339,18.535c0.241,0.049 0.649,-0.213 0.908,-0.582c0.419,-0.598 0.471,-2.667 0.471,-18.609l0,-17.936l8.583,-0l-0.09,18.813c-0.1,21.174 -0.044,20.613 -2.35,23.233c-1.746,1.984 -3.076,2.369 -8.176,2.369l-4.247,-0l-12.755,-29.767l-0.153,29.914l-8.258,0l0,-22.288Z" style="fill:#fff;fill-rule:nonzero;"/><path id="path33" d="M280.804,171.275c0,-0.67 10.236,-35.476 11.083,-37.686c1.736,-4.531 3.655,-6.162 7.51,-6.386c4.564,-0.264 7.049,1.531 8.875,6.411c0.511,1.366 10.482,35.007 11.069,37.346l0.192,0.762l-8.479,-0.164l-1.207,-4.28c-0.664,-2.353 -1.298,-4.646 -1.409,-5.095l-0.201,-0.816l-16.356,0.157l-0.923,3.398c-0.507,1.869 -1.144,4.16 -1.415,5.091l-0.492,1.692l-4.123,0c-3.418,0 -4.124,-0.074 -4.124,-0.431l0,0.001Zm25.566,-17.793c-0.081,-0.284 -1.297,-4.633 -2.701,-9.665c-1.404,-5.032 -2.69,-9.315 -2.858,-9.518c-0.463,-0.558 -1.057,-0.444 -1.536,0.295c-0.387,0.597 -5.486,18.344 -5.486,19.094c0,0.208 2.11,0.31 6.365,0.31c5.922,0 6.355,-0.035 6.216,-0.516l0,-0Z" style="fill:#fff;fill-rule:nonzero;"/><path id="path32" d="M481.296,171.881c-4.166,-0.797 -6.543,-1.892 -8.855,-4.079c-1.921,-1.816 -2.786,-3.254 -3.689,-6.131c-0.672,-2.14 -0.695,-2.54 -0.695,-12.099c-0,-10.606 0.107,-11.615 1.567,-14.756c0.975,-2.098 3.578,-4.691 5.725,-5.704c3.215,-1.516 4.965,-1.824 10.267,-1.802c4.413,0.018 5.084,0.091 7.155,0.78c2.863,0.952 4.816,2.194 6.718,4.276c2.393,2.618 2.45,2.356 -1.043,4.761c-2.99,2.058 -3.681,2.404 -3.681,1.844c0,-0.545 -3.075,-3.617 -4.251,-4.246c-1.066,-0.571 -1.661,-0.647 -5.045,-0.647c-4.338,-0 -5.432,0.357 -7.177,2.345c-1.711,1.948 -1.873,3.191 -1.77,13.511c0.09,8.91 0.117,9.28 0.773,10.705c0.808,1.752 1.887,2.955 3.312,3.688c3.505,1.803 10.314,1.427 13.137,-0.726c1.522,-1.162 1.981,-2.485 1.862,-5.379c-0.099,-2.396 -0.143,-2.537 -1.067,-3.362l-0.964,-0.862l-8.844,0l0,-7.378l4.796,0.006c5.917,0.008 8.447,0.345 10.55,1.406c3.106,1.567 4.346,5.055 4.064,11.439c-0.122,2.753 -0.275,3.561 -0.969,5.109c-1.481,3.3 -4.668,5.596 -9.529,6.866c-2.973,0.776 -9.383,1.002 -12.347,0.435l-0,-0Z" style="fill:#fff;fill-rule:nonzero;"/><path id="path31" d="M553.789,212.277l-0,-22.288l9.863,0.161l7.939,18.519c6.422,14.98 8.043,18.519 8.486,18.519c1.271,-0 1.301,-0.418 1.39,-19.257l0.085,-17.928l8.262,-0l-0.088,19.109c-0.098,21.303 -0.025,20.535 -2.169,23.04c-1.676,1.957 -3.437,2.447 -8.443,2.348l-4.122,-0.082l-6.248,-14.588l-6.249,-14.588l-0.077,14.662l-0.076,14.662l-8.553,-0l-0,-22.289Z" style="fill:#fff;fill-rule:nonzero;"/><rect id="path30" x="497.126" y="190.004" width="8.263" height="44.563" style="fill:#fff;fill-rule:nonzero;"/><path id="path29" d="M469.385,215.975l-0,-18.593l-12.395,0l-0,-7.383l34.676,0.153l0.166,7.23l-13.888,0l-0,37.185l-8.559,0l-0,-18.592Z" style="fill:#fff;fill-rule:nonzero;"/><path id="path28" d="M419.809,233.763c0.15,-0.45 2.664,-8.955 5.587,-18.899c2.923,-9.943 5.669,-18.83 6.103,-19.747c1.651,-3.489 3.877,-4.965 7.489,-4.965c1.141,0 2.476,0.216 3.296,0.532c1.71,0.659 3.594,2.649 4.544,4.796c0.558,1.261 11.637,38.328 11.637,38.932c0,0.085 -1.905,0.155 -4.233,0.155l-4.234,0l-0.976,-3.615c-0.538,-1.989 -1.161,-4.246 -1.386,-5.017l-0.408,-1.402l-16.356,0.003l-1.349,4.942l-1.348,4.941l-8.64,0.164l0.274,-0.82Zm25.671,-16.759c0,-0.612 -5.357,-19.174 -5.628,-19.5c-0.522,-0.629 -1.43,-0.501 -1.76,0.247c-0.383,0.87 -5.302,18.512 -5.302,19.016c0,0.308 1.301,0.388 6.345,0.388c3.49,-0 6.345,-0.068 6.345,-0.151Z" style="fill:#fff;fill-rule:nonzero;"/><path id="path27" d="M302.053,212.278l-0,-22.288l9.863,0.162l7.939,18.518c6.421,14.98 8.043,18.519 8.486,18.519c1.271,0 1.301,-0.417 1.39,-19.256l0.085,-17.929l8.262,0l-0.088,19.109c-0.098,21.304 -0.025,20.535 -2.169,23.04c-1.676,1.958 -3.437,2.447 -8.443,2.348l-4.122,-0.082l-6.248,-14.588l-6.249,-14.588l-0.154,29.324l-8.553,-0l0.001,-22.289Z" style="fill:#fff;fill-rule:nonzero;"/><path id="path26" d="M259.261,234.567l-0,-44.577l9.782,0.162l7.903,18.445c7.953,18.559 8.314,19.271 9.275,18.31c0.243,-0.242 0.379,-5.451 0.486,-18.546l0.147,-18.209l8.435,-0.164l-0.172,37.939l-0.697,1.731c-1.58,3.917 -3.788,4.977 -10.096,4.845l-3.941,-0.083l-6.227,-14.529c-3.425,-7.991 -6.319,-14.62 -6.43,-14.731c-0.111,-0.112 -0.202,6.46 -0.202,14.602l-0,14.805l-8.263,0Z" style="fill:#fff;fill-rule:nonzero;"/><rect id="path25" x="242.734" y="190.299" width="8.263" height="44.268" style="fill:#1182aa;fill-opacity:0.99;fill-rule:nonzero;"/><path id="path24" d="M626.24,235.128c-5.535,-0.789 -9.675,-3.753 -11.386,-8.151c-0.843,-2.169 -0.925,-6.589 -0.16,-8.623c0.782,-2.079 2.693,-4.339 5.299,-6.266c1.326,-0.98 2.451,-1.819 2.499,-1.864c0.049,-0.045 -0.552,-0.928 -1.334,-1.962c-1.981,-2.617 -2.827,-4.675 -2.974,-7.232c-0.288,-5.015 2.432,-8.839 7.298,-10.262c1.978,-0.578 6.678,-0.615 8.727,-0.067c3.515,0.938 6.15,3.132 7.24,6.026c0.533,1.415 0.616,2.141 0.513,4.492c-0.184,4.208 -1.561,6.57 -5.506,9.443c-0.993,0.723 -1.805,1.398 -1.805,1.5c0,0.206 6.444,7.649 6.622,7.649c0.276,0 1.357,-3.806 1.681,-5.924l0.358,-2.339l8.538,-0l-0.194,1.893c-0.382,3.728 -1.99,8.741 -3.774,11.766l-0.841,1.427l3.396,3.799c1.869,2.089 3.397,3.874 3.397,3.966c-0,0.093 -2.225,0.17 -4.943,0.173l-4.944,0.004l-2.139,-2.487l-1.882,0.91c-4.456,2.156 -8.78,2.828 -13.686,2.129l0,0Zm8.35,-8.37c1.032,-0.468 1.819,-1.004 1.771,-1.208c-0.048,-0.201 -2.058,-2.635 -4.468,-5.408l-4.381,-5.042l-1.243,0.855c-1.849,1.272 -3.361,3.083 -3.589,4.298c-0.588,3.133 0.559,5.56 3.231,6.835c1.328,0.634 1.83,0.708 4.166,0.616c2.142,-0.085 3.015,-0.268 4.513,-0.946Zm-3.548,-22.49c3.118,-2.555 3.24,-7.068 0.219,-8.065c-2.517,-0.831 -4.578,0.645 -4.578,3.277c-0,0.804 0.183,1.89 0.407,2.412c0.455,1.06 2.148,3.458 2.442,3.458c0.104,0 0.783,-0.487 1.51,-1.082l0,-0Z" style="fill:#fff;fill-rule:nonzero;"/><path id="path23" d="M524.559,234.898c-3.401,-0.744 -5.58,-1.833 -7.773,-3.884c-2.013,-1.883 -3.121,-3.79 -3.937,-6.776c-0.454,-1.66 -0.524,-3.249 -0.524,-11.805c-0,-8.66 0.068,-10.151 0.546,-12.02c1.866,-7.278 7.728,-10.992 17.363,-10.997c4.482,-0.002 7.256,0.517 10.21,1.913c3.732,1.764 6.187,4.787 7.376,9.083c0.436,1.576 0.509,3.28 0.509,11.874c0,7.498 -0.102,10.444 -0.403,11.657c-1.38,5.547 -5.029,9.182 -10.811,10.767c-2.812,0.771 -9.438,0.87 -12.556,0.188l-0,0Zm10.642,-7.887c1.67,-0.908 2.965,-2.42 3.595,-4.198c0.285,-0.804 0.384,-3.525 0.384,-10.527c0,-9.235 -0.016,-9.477 -0.679,-10.92c-1.47,-3.19 -3.357,-4.336 -7.436,-4.514c-1.584,-0.069 -3.344,0.021 -4.046,0.212c-1.89,0.509 -3.641,2.012 -4.657,3.999l-0.889,1.736l0,9.318c0,9.997 0.074,10.6 1.561,12.804c0.801,1.188 2.729,2.486 4.292,2.889c0.514,0.133 2.143,0.2 3.619,0.149c2.3,-0.079 2.908,-0.215 4.256,-0.948l0,0Z" style="fill:#fff;fill-rule:nonzero;"/><path id="path22" d="M399.44,235.194c-2.444,-0.8 -4.054,-2.383 -5.366,-5.276c-0.631,-1.392 -9.971,-33.663 -11.317,-39.102l-0.201,-0.812l4.294,0c2.362,0 4.358,0.104 4.437,0.232c0.079,0.127 2.288,8.261 4.91,18.076c3.319,12.419 4.94,18.021 5.334,18.426c0.564,0.58 0.57,0.58 1.136,0c0.399,-0.407 2.001,-5.94 5.34,-18.436c2.624,-9.82 4.833,-17.954 4.908,-18.076c0.185,-0.3 8.661,-0.285 8.661,0.017c-0,0.861 -10.764,38.155 -11.448,39.662c-1.742,3.842 -3.776,5.302 -7.587,5.444c-1.299,0.049 -2.694,-0.021 -3.101,-0.153l-0,-0.002Z" style="fill:#fff;fill-rule:nonzero;"/><path id="path21" d="M356.502,235.037c-6.837,-1.329 -11.006,-4.985 -12.393,-10.867c-0.632,-2.682 -0.629,-20.804 0.004,-23.49c1.388,-5.887 5.39,-9.528 11.915,-10.839c3.848,-0.773 10.308,-0.495 13.459,0.579c5.067,1.727 7.835,4.489 9.344,9.323c0.669,2.146 0.69,2.532 0.69,12.69c0,9.335 -0.059,10.668 -0.542,12.235c-0.845,2.738 -1.904,4.577 -3.567,6.196c-3.113,3.032 -6.702,4.275 -12.86,4.457c-2.617,0.077 -4.693,-0.021 -6.05,-0.284l0,-0Zm9.739,-7.912c1.825,-0.943 2.582,-1.739 3.453,-3.629c0.665,-1.441 0.679,-1.673 0.679,-11.21c-0,-10.758 0,-10.755 -1.964,-12.992c-1.533,-1.747 -2.941,-2.302 -6.197,-2.444c-3.625,-0.159 -5.425,0.379 -7.193,2.147c-2.154,2.154 -2.249,2.774 -2.147,13.927c0.085,9.284 0.115,9.74 0.727,10.871c1.659,3.07 4.265,4.354 8.51,4.193c2.151,-0.081 2.937,-0.246 4.132,-0.863Z" style="fill:#fff;fill-rule:nonzero;"/><path id="path20" d="M255.057,277.728l-0.076,-18.814l-12.247,-0.159l-0,-7.071l34.529,0l-0,7.083l-13.871,-0l0,37.775l-8.259,0l-0.076,-18.814Z" style="fill:#1182aa;fill-opacity:0.99;fill-rule:nonzero;"/><path id="path19" d="M605.041,296.64c-0.108,-0.108 -0.197,-4.532 -0.197,-9.832l0,-9.635l-6.518,-12.345c-3.585,-6.79 -6.588,-12.525 -6.672,-12.745c-0.125,-0.325 0.701,-0.399 4.452,-0.399l4.605,-0l4.328,8.632l4.329,8.632l4.225,-8.632l4.225,-8.632l9.484,-0l-1.02,1.844c-0.562,1.015 -3.689,6.803 -6.95,12.864l-5.929,11.019l-0,19.426l-4.083,-0c-2.245,-0 -4.171,-0.089 -4.279,-0.197l0,0Z" style="fill:#fff;fill-rule:nonzero;"/><path id="path18" d="M492.332,296.528c-2.603,-0.303 -5.492,-1.281 -6.987,-2.364c-1.574,-1.14 -3.092,-3.248 -3.92,-5.443c-0.662,-1.756 -0.668,-1.915 -0.757,-19.404l-0.091,-17.633l8.263,-0l0.17,33.513l0.741,1.44c0.52,1.01 1.093,1.624 1.919,2.057c1.099,0.577 1.728,0.624 9.514,0.712l8.337,0.094l-0,7.337l-7.6,-0.038c-4.179,-0.021 -8.495,-0.143 -9.59,-0.27l0.001,-0.001Z" style="fill:#fff;fill-rule:nonzero;"/><path id="path17" d="M397.581,296.648c-0.113,-0.112 -0.205,-10.275 -0.205,-22.584l-0,-22.38l9.961,-0l0.599,1.402c0.548,1.281 14.09,33.226 15.003,35.388c0.495,1.174 1.407,1.043 1.864,-0.269c0.208,-0.597 0.314,-6.895 0.314,-18.71l-0,-17.811l8.587,0l-0.093,18.814c-0.091,18.315 -0.11,18.863 -0.724,20.667c-0.863,2.537 -1.92,3.823 -3.878,4.72c-1.434,0.656 -2.143,0.764 -5.855,0.89l-4.223,0.143l-0.841,-1.885c-0.463,-1.037 -3.354,-7.831 -6.425,-15.098l-5.583,-13.214l-0.295,29.969l-4.001,0.081c-2.2,0.045 -4.093,-0.008 -4.205,-0.123l-0,0Z" style="fill:#fff;fill-rule:nonzero;"/><path id="path16" d="M356.059,274.261l0,-22.577l8.264,-0l-0,18.888l16.526,-0l0,-18.888l8.562,-0l-0.15,45.006l-8.264,-0l-0.156,-18.741l-16.518,0l-0,18.888l-8.264,0l0,-22.576Z" style="fill:#fff;fill-rule:nonzero;"/><path id="path15" d="M293.733,296.529c-2.544,-0.297 -5.09,-1.032 -6.601,-1.908c-1.669,-0.967 -3.596,-3.146 -4.411,-4.99c-1.258,-2.845 -1.373,-4.33 -1.271,-16.551c0.093,-11.153 0.117,-11.561 0.763,-13.164c1.591,-3.944 3.669,-5.93 7.592,-7.256c2.345,-0.792 2.43,-0.799 12.174,-0.911l9.813,-0.113l-0,7.426l-17.592,0l-1.515,0.755c-2.263,1.128 -2.822,2.468 -2.978,7.14l-0.12,3.615l18.073,-0l0,7.378l-18.073,-0l0.12,3.615c0.146,4.376 0.731,5.788 2.906,7.005c1.32,0.739 1.351,0.742 10.251,0.841l8.928,0.1l-0,7.326l-8.042,-0.037c-4.424,-0.022 -8.931,-0.143 -10.017,-0.269l0,-0.002Z" style="fill:#fff;fill-rule:nonzero;"/><path id="path14" d="M566.331,296.711c-7.031,-1.616 -10.831,-5.21 -12.141,-11.485c-0.648,-3.106 -0.432,-21.521 0.277,-23.599c1.66,-4.863 4.864,-7.753 10.241,-9.239c2.429,-0.671 9.929,-0.765 12.395,-0.155c2.858,0.706 5.714,2.261 7.575,4.124c1.6,1.601 2.724,3.166 2.435,3.39c-1.014,0.783 -6.255,4.34 -6.298,4.274c-2.774,-4.226 -5.066,-5.549 -9.614,-5.549c-4.025,-0 -6.477,1.146 -7.887,3.689l-0.819,1.475l-0.089,9.8c-0.057,6.279 0.025,10.22 0.225,10.966c0.557,2.069 2.047,3.92 3.925,4.878c1.467,0.747 2.117,0.885 4.724,1.001c4.739,0.211 8.013,-0.849 9.361,-3.03c1.294,-2.094 1.137,-6.148 -0.294,-7.579l-0.838,-0.837l-9.194,-0l0,-7.378l5.593,-0c7.682,-0 9.716,0.498 11.901,2.917c1.682,1.862 2.054,3.615 1.936,9.125c-0.094,4.373 -0.146,4.726 -0.926,6.315c-1.453,2.959 -4.784,5.342 -9.208,6.587c-2.429,0.683 -10.805,0.879 -13.28,0.31l0,0Z" style="fill:#fff;fill-rule:nonzero;"/><path id="path13" d="M524.424,296.652c-4.594,-0.963 -8.568,-3.719 -10.306,-7.148c-1.671,-3.297 -1.793,-4.33 -1.793,-15.096c-0,-8.537 0.071,-10.144 0.52,-11.771c2.044,-7.398 7.836,-11.063 17.482,-11.063c6.061,0 10.554,1.411 13.565,4.258c1.93,1.825 2.811,3.256 3.717,6.034c0.627,1.923 0.682,2.686 0.798,11.07c0.146,10.532 -0.122,12.94 -1.826,16.389c-1.866,3.775 -5.552,6.339 -10.561,7.349c-2.854,0.575 -8.797,0.564 -11.596,-0.021l0,-0.001Zm10.224,-7.534c1.827,-0.786 3.587,-2.748 4.124,-4.599c0.308,-1.062 0.408,-3.64 0.408,-10.554c0,-7.977 -0.064,-9.29 -0.501,-10.255c-0.867,-1.913 -2.01,-3.13 -3.733,-3.977c-1.489,-0.731 -1.984,-0.818 -4.619,-0.813c-3.329,0.009 -4.913,0.526 -6.526,2.139c-2.22,2.22 -2.549,4.191 -2.424,14.504c0.094,7.76 0.131,8.21 0.777,9.617c1.158,2.516 3.022,3.997 5.766,4.58c1.808,0.384 5.066,0.073 6.728,-0.642l-0,0Z" style="fill:#fff;fill-rule:nonzero;"/><path id="path12" d="M451.7,296.828c-3.919,-0.819 -6.626,-2.214 -8.843,-4.558c-1.772,-1.873 -2.823,-3.97 -3.432,-6.844c-0.614,-2.9 -0.607,-19.167 0.009,-22.08c1.2,-5.665 4.862,-9.3 11.063,-10.982c1.445,-0.391 3.046,-0.52 6.492,-0.52c3.446,0 5.048,0.128 6.493,0.52c6.122,1.66 9.81,5.217 11.078,10.685c0.388,1.674 0.449,3.704 0.365,12.217c-0.095,9.626 -0.138,10.321 -0.758,12.173c-1.388,4.145 -4.627,7.171 -9.311,8.7c-2.126,0.693 -2.959,0.796 -7.129,0.874c-2.597,0.048 -5.31,-0.034 -6.028,-0.185l0.001,0Zm9.742,-7.703c1.782,-0.766 3.326,-2.482 3.964,-4.404c0.397,-1.194 0.455,-2.848 0.379,-10.804c-0.089,-9.346 -0.093,-9.403 -0.824,-10.834c-1.538,-3.013 -4.004,-4.16 -8.516,-3.963c-4.05,0.177 -6.15,1.393 -7.54,4.369c-0.577,1.234 -0.628,1.92 -0.716,9.739c-0.052,4.626 -0.012,9.093 0.091,9.928c0.389,3.174 2.926,5.929 6.067,6.59c1.964,0.412 5.39,0.113 7.096,-0.621l-0.001,-0Z" style="fill:#fff;fill-rule:nonzero;"/><path id="path11" d="M328.171,296.668c-4.285,-0.931 -8.333,-3.541 -10.058,-6.484c-0.391,-0.668 -1.004,-2.001 -1.362,-2.962c-0.613,-1.648 -0.656,-2.313 -0.76,-11.745c-0.12,-10.882 0.042,-12.506 1.555,-15.769c1.002,-2.159 3.675,-4.754 6.076,-5.9c2.713,-1.295 5.156,-1.828 9.271,-2.024c7.699,-0.366 13.285,1.722 16.699,6.244c1.473,1.951 1.633,1.655 -2.386,4.406l-2.804,1.919l-0.59,-0.801c-1.406,-1.91 -2.671,-3.05 -4.232,-3.817c-1.558,-0.765 -1.919,-0.82 -5.359,-0.817c-3.441,0.004 -3.793,0.058 -5.22,0.808c-0.843,0.442 -1.883,1.264 -2.312,1.827c-1.485,1.946 -1.617,3.012 -1.617,13.039c-0,8.58 0.043,9.353 0.603,10.849c0.744,1.988 2.304,3.465 4.394,4.159c2.236,0.743 7.861,0.539 9.834,-0.357c1.432,-0.65 4.195,-3.252 4.511,-4.248c0.097,-0.304 0.315,-0.553 0.486,-0.553c0.171,0 1.691,1.006 3.379,2.236l3.067,2.235l-0.564,0.79c-2.323,3.252 -4.894,5.203 -8.478,6.436c-2.101,0.722 -2.804,0.809 -7.198,0.889c-3.544,0.065 -5.432,-0.033 -6.935,-0.36l-0,0Z" style="fill:#fff;fill-rule:nonzero;"/><path id="path10" d="M274.813,323.801c-0.103,-0.103 0.076,-0.521 0.397,-0.93l0.585,-0.743l-0.668,-0.332c-0.871,-0.432 -0.992,-1.393 -0.259,-2.056c0.697,-0.632 1.691,-0.412 1.959,0.433c0.259,0.818 -0.09,2.178 -0.787,3.063c-0.601,0.766 -0.893,0.899 -1.227,0.565l0,0Z" style="fill:#fff;fill-rule:nonzero;"/><path id="path9" d="M333.398,333.394c-1.77,-0.51 -2.126,-1.569 -2.127,-6.315c-0.001,-3.351 0.09,-4.271 0.48,-4.827c0.787,-1.124 2.171,-1.51 5.411,-1.51l2.961,-0l-0,1.771l-2.804,-0c-3.398,-0 -3.984,0.369 -3.984,2.508l0,1.328l5.903,0l-0,1.771l-5.903,-0l0,1.328c0,2.139 0.586,2.508 3.984,2.508l2.804,0l-0,1.771l-2.877,-0.025c-1.583,-0.013 -3.314,-0.153 -3.848,-0.307l-0,-0.001Z" style="fill:#fff;fill-rule:nonzero;"/><path id="path8" d="M318.579,333.465c0,-0.143 0.792,-2.833 1.758,-5.976c1.387,-4.505 1.921,-5.855 2.525,-6.378c1.249,-1.081 2.725,-0.767 3.501,0.746c0.372,0.727 3.726,11.275 3.726,11.72c-0,0.102 -0.483,0.145 -1.072,0.094c-1.023,-0.087 -1.096,-0.167 -1.56,-1.714l-0.488,-1.624l-5.291,0l-0.537,1.697c-0.516,1.632 -0.576,1.697 -1.549,1.697c-0.557,0 -1.013,-0.117 -1.013,-0.262l0,0Zm7.827,-5.124c-0.068,-0.203 -0.47,-1.527 -0.892,-2.943c-0.697,-2.338 -1.14,-3.171 -1.496,-2.815c-0.071,0.071 -0.463,1.246 -0.871,2.612c-0.408,1.365 -0.814,2.715 -0.904,2.999c-0.145,0.46 0.079,0.516 2.062,0.516c1.648,0 2.192,-0.095 2.101,-0.369Z" style="fill:#fff;fill-rule:nonzero;"/><path id="path7" d="M278.793,332.91c0.069,-0.606 0.883,-1.534 3.156,-3.595c3.879,-3.52 4.581,-4.94 3.148,-6.373c-0.97,-0.97 -3.245,-1.021 -4.417,-0.1c-0.771,0.606 -0.806,0.608 -1.211,0.074c-0.593,-0.784 -0.546,-0.935 0.48,-1.559c2.008,-1.221 5.43,-0.977 6.898,0.491c0.604,0.605 0.745,1.033 0.745,2.27c-0,1.993 -1,3.559 -3.781,5.92c-1.146,0.974 -2.093,1.871 -2.103,1.992c-0.008,0.122 1.442,0.222 3.228,0.222l3.246,-0l0,1.475l-9.481,0l0.092,-0.817Z" style="fill:#fff;fill-rule:nonzero;"/><path id="path6" d="M266.934,333.727l-0,-11.214l-3.837,-0l0,-1.771l10.034,-0l0,1.771l-4.132,-0l0,11.214l-2.065,0Z" style="fill:#fff;fill-rule:nonzero;"/><rect id="path5" x="258.67" y="320.742" width="2.066" height="12.985" style="fill:#fff;fill-rule:nonzero;"/><path id="path4" d="M245.98,333.727l0,-12.985l3.375,-0c1.856,-0 3.702,0.125 4.103,0.277c1.327,0.505 1.966,1.479 1.966,2.999c-0,1.193 -0.13,1.503 -0.905,2.155l-0.905,0.761l0.743,0.339c1.607,0.732 2.103,3.657 0.858,5.056c-0.972,1.091 -2.251,1.398 -5.832,1.398l-3.403,0Zm7.017,-2.23c0.487,-0.341 0.656,-0.756 0.656,-1.606c0,-1.625 -0.739,-2.066 -3.459,-2.066l-2.148,-0l-0,4.131l2.148,0c1.466,0 2.355,-0.145 2.803,-0.459Zm-0.179,-5.931c0.672,-0.608 0.697,-1.801 0.052,-2.514c-0.389,-0.429 -0.931,-0.539 -2.656,-0.539l-2.168,-0l0,3.541l2.117,0c1.555,0 2.259,-0.129 2.656,-0.488l-0.001,-0Z" style="fill:#fff;fill-rule:nonzero;"/><path id="path3" d="M310.142,333.704c-0.684,-0.164 -1.579,-0.676 -2.066,-1.184l-0.859,-0.896l-0.184,-10.882l2.103,-0l-0,4.703c-0,2.586 0.121,5.022 0.27,5.413c0.578,1.521 4.013,1.852 5.112,0.494c0.451,-0.556 0.52,-1.307 0.52,-5.626l-0,-4.984l2.066,-0l-0,5.151c-0,3.308 -0.124,5.422 -0.346,5.909c-0.75,1.647 -3.892,2.55 -6.616,1.902l0,-0Z" style="fill:#fff;fill-rule:nonzero;"/><path id="path2" d="M292.799,333.708c-0.625,-0.155 -1.534,-0.564 -2.018,-0.909l-0.881,-0.627l0.606,-0.607c0.563,-0.563 0.644,-0.572 1.138,-0.125c0.292,0.264 1.103,0.609 1.802,0.766c3.016,0.678 5.264,-1.411 4.049,-3.761c-0.578,-1.117 -2.134,-1.593 -4.357,-1.332c-2.245,0.264 -2.411,-0.013 -2.146,-3.56l0.211,-2.813l7.898,-0l0,1.476l-6.123,-0l-0.185,0.922c-0.437,2.186 -0.399,2.232 1.955,2.385c3.594,0.233 4.943,1.41 4.943,4.311c0,1.614 -0.658,2.721 -2.045,3.438c-1.098,0.568 -3.456,0.78 -4.847,0.436l0,-0Z" style="fill:#fff;fill-rule:nonzero;"/><path id="path1" d="M112.882,412.322c-42.528,-3.104 -81.193,-34.732 -100.453,-82.169c-3.759,-9.259 -3.865,-9.725 -5.911,-26.087c-2.87,-22.949 -4.113,-38.071 -5.836,-70.976c-0.77,-14.709 -0.914,-35.122 -0.299,-42.35c0.693,-8.151 3.303,-32.977 4.203,-39.988c7.504,-58.408 24.478,-102.137 49.261,-126.91c13.617,-13.611 27.405,-20.418 46.935,-23.173c5.185,-0.731 18.117,-0.902 24.199,-0.319c23.017,2.206 43.461,11.133 58.549,25.567c12.482,11.94 22.322,29.424 27.005,47.983c2.305,9.138 3.132,15.832 3.112,25.206c-0.021,9.744 -0.921,15.925 -3.404,23.382c-5.69,17.091 -17.387,28.041 -36.778,34.427c-2.4,0.79 -19.216,5.205 -37.368,9.81l-33.005,8.374l0.188,1.18c0.419,2.624 3.165,5.833 8.126,9.493c1.542,1.137 6.721,4.661 11.51,7.83c14.963,9.902 23.739,16.882 32.625,25.949c17.896,18.261 32.594,43.019 41.237,69.464c7.581,23.194 9.476,45.196 5.498,63.841c-3.378,15.836 -11.138,29.237 -22.461,38.791c-13.816,11.657 -32.525,18.773 -54.096,20.573c-3.294,0.275 -9.761,0.326 -12.837,0.102l-0,-0Zm16.523,-1.738c14.404,-1.674 28.038,-6.049 38.921,-12.488c16.51,-9.77 27.182,-24.095 31.914,-42.84c5.034,-19.938 2.735,-45.436 -6.357,-70.52c-4.761,-13.135 -10.737,-25.469 -17.804,-36.743c-11.16,-17.805 -25.066,-32.851 -40.916,-44.27c-2.05,-1.477 -0.724,-0.318 3.207,2.801c18.186,14.435 32.486,32.462 44.014,55.487c18.1,36.152 22.662,72.7 12.397,99.308c-3.285,8.513 -7.824,15.666 -14.022,22.094c-10.974,11.381 -25.988,19.043 -44.563,22.74c-21.188,4.218 -41.052,1.784 -60.516,-7.416c-12.597,-5.954 -26.118,-16.119 -35.966,-27.039c-1.855,-2.056 -3.439,-3.739 -3.519,-3.739c-0.081,-0 0.114,0.299 0.434,0.664c0.319,0.365 1.504,1.726 2.633,3.025c20.118,23.145 46.189,37.14 73.351,39.374c4.123,0.339 11.831,0.138 16.792,-0.438Zm-1.177,-4.396c36.401,-5.083 60.356,-24.087 67.881,-53.851c3.699,-14.627 3.492,-31.814 -0.602,-50.126c-5.214,-23.319 -16.539,-47.587 -31.393,-67.272c-4.955,-6.566 -7.623,-9.623 -13.736,-15.735c-6.907,-6.906 -12.802,-11.892 -20.379,-17.236c-2.547,-1.796 -1.062,-0.501 2.36,2.059c5.619,4.202 9.812,7.869 15.674,13.708c7.93,7.898 13.077,14.197 19.298,23.618c5.49,8.313 9.609,15.635 13.422,23.858c13.762,29.681 18.39,58.732 13.115,82.327c-4.364,19.519 -15.49,34.577 -32.801,44.392c-12.343,6.998 -28.539,11.342 -44.496,11.935c-19.619,0.729 -40.458,-5.932 -58.505,-18.7c-7.675,-5.429 -14.21,-11.423 -22.467,-20.608l-1.585,-1.763l1.425,1.771c2.971,3.694 7.335,8.47 10.675,11.684c18.168,17.481 39.383,27.858 62.046,30.349c3.686,0.405 16.038,0.153 20.068,-0.41l-0,0Zm-7.673,-3.703c14.073,-1.216 28.383,-5.314 38.777,-11.105c19.9,-11.087 31.284,-28.106 34.616,-51.752c0.818,-5.804 0.733,-19.731 -0.161,-26.414c-4.042,-30.212 -17.836,-61.031 -38.372,-85.731c-3.713,-4.467 -12.528,-13.261 -17.146,-17.106c-3.778,-3.147 -9.773,-7.68 -13.435,-10.16c-2.518,-1.705 -1.652,-1.01 3.96,3.18c19.404,14.486 34.166,32.471 45.885,55.903c4.571,9.138 7.076,15.194 10.156,24.55c8.17,24.816 9.233,48.674 3.012,67.582c-3.299,10.026 -7.949,17.661 -15.204,24.966c-6.041,6.083 -11.39,9.902 -19.183,13.699c-16.203,7.894 -36.839,11.211 -54.074,8.692c-16.834,-2.46 -33.244,-9.82 -47.741,-21.412c-5.532,-4.423 -9.822,-8.559 -16.675,-16.077c-2.471,-2.712 -1.392,-1.32 2.418,3.117c20.641,24.039 48.433,38.037 76.084,38.323c2.029,0.021 5.216,-0.094 7.083,-0.255l-0,-0Zm-0.741,-4.462c6.858,-0.592 15.439,-2.396 22.287,-4.685c16.41,-5.485 28.918,-14.618 37.183,-27.15c5.214,-7.905 8.987,-18.423 10.481,-29.217c0.66,-4.765 0.89,-14.85 0.461,-20.228c-2.241,-28.089 -14.358,-58.598 -33.193,-83.575c-8.34,-11.058 -17.591,-20.187 -29.248,-28.862c-4.789,-3.564 -11.952,-8.536 -11.952,-8.296c-0,0.081 1.494,1.171 3.32,2.421c17.535,12.007 29.963,24.496 41.097,41.299c4.488,6.772 7.581,12.134 11.065,19.183c14.525,29.385 19.596,58.77 14.278,82.726c-3.042,13.704 -10.453,26.259 -20.436,34.622c-12.214,10.231 -26.856,16.088 -46.521,18.608c-4.895,0.627 -15.98,0.463 -21.101,-0.312c-13.907,-2.107 -26.223,-6.829 -38.302,-14.687c-8.646,-5.624 -16.545,-12.538 -23.889,-20.912c-3.87,-4.411 -4.404,-4.94 -2.561,-2.536c2.677,3.493 7.674,8.999 11.585,12.766c18.293,17.619 40.427,27.901 62.759,29.151c4.164,0.233 7.204,0.158 12.687,-0.316l-0,0Zm-2.134,-4.236c17.306,-1.836 32.99,-7.753 44.667,-16.849c2.674,-2.083 7.546,-6.943 9.889,-9.864c7.05,-8.792 11.432,-19.521 13.441,-32.906c0.761,-5.073 0.76,-19.231 -0.002,-25.085c-3.479,-26.72 -14.997,-54.189 -32.251,-76.913c-4.108,-5.41 -8.587,-10.463 -13.719,-15.475c-7.648,-7.47 -13.927,-12.346 -28.004,-21.746c-10.223,-6.826 -13.465,-9.226 -15.342,-11.354c-1.331,-1.51 -2.657,-3.86 -2.665,-4.723c-0.008,-0.83 -0.507,-1.461 -0.869,-1.098c-0.215,0.215 -0.17,0.777 0.149,1.851c0.349,1.173 0.929,2.042 2.418,3.621c2.501,2.651 5.447,4.841 15.129,11.248c13.308,8.808 20.298,14.314 28.192,22.208c11.274,11.274 20.486,24.303 28.486,40.292c11.692,23.365 17.209,46.364 16.174,67.419c-1.141,23.207 -10.706,41.094 -28.237,52.807c-16.113,10.766 -40.374,16.007 -60.266,13.019c-16.171,-2.429 -31.499,-9.331 -45.586,-20.526c-4.638,-3.686 -13.534,-12.497 -17.117,-16.953c-2.824,-3.513 -4.015,-4.837 -2.653,-2.951c6.817,9.441 17.233,19.754 26.948,26.684c12.851,9.166 28.721,15.507 42.844,17.117c1.542,0.176 3.202,0.366 3.689,0.423c2.413,0.281 11.088,0.136 14.686,-0.246l-0.001,0Zm-1.995,-4.288c4.419,-0.498 9.409,-1.429 14.122,-2.636c27.761,-7.109 45.687,-24.835 50.779,-50.213c1.334,-6.649 1.5,-8.584 1.497,-17.386c-0.003,-8.946 -0.318,-12.563 -1.791,-20.589c-5.584,-30.421 -23.327,-63.39 -45.023,-83.664c-7.409,-6.923 -12.966,-11.147 -27.084,-20.585c-4.937,-3.301 -9.918,-6.787 -11.067,-7.748c-3.276,-2.737 -5.12,-5.205 -5.62,-7.521c-0.124,-0.575 -0.388,-0.959 -0.659,-0.959c-0.362,-0 -0.411,0.219 -0.246,1.096c0.298,1.591 0.832,2.482 2.69,4.488c2.056,2.221 5.851,5.018 15.32,11.291c12.884,8.536 18.8,13.242 27.168,21.616c6.614,6.618 11.571,12.68 16.941,20.716c13.943,20.868 22.584,42.955 25.849,66.071c0.625,4.424 0.893,17.033 0.457,21.543c-2.36,24.455 -14.167,42.227 -34.889,52.515c-9.089,4.512 -18.995,7.351 -30.657,8.784c-4.545,0.559 -15.255,0.468 -19.625,-0.166c-15.432,-2.24 -29.546,-8.176 -42.7,-17.958c-7.232,-5.378 -14.713,-12.612 -20.385,-19.713c-3.336,-4.175 -4.011,-4.926 -2.552,-2.839c4.124,5.901 12.624,15.221 18.537,20.327c16.067,13.871 34.716,22.134 53.74,23.812c3.504,0.309 11.22,0.166 15.198,-0.282l0,-0Zm-2.213,-4.294c21.236,-2.454 39.114,-11.072 50.081,-24.141c7.937,-9.459 12.489,-20.699 14.145,-34.929c0.583,-5.004 0.408,-17.24 -0.32,-22.512c-3.88,-28.063 -16.464,-56.003 -35.419,-78.641c-8.764,-10.466 -18.182,-18.424 -35.127,-29.681c-13.76,-9.14 -15.998,-11.117 -17.233,-15.218c-0.352,-1.167 -0.575,-1.511 -0.865,-1.33c-0.623,0.389 -0.122,2.194 1.091,3.931c1.659,2.374 4.722,4.766 14.351,11.208c16.812,11.246 25.076,18.055 33.423,27.541c20.286,23.05 34.736,55.507 37.248,83.666c0.689,7.723 0.245,18.345 -1.043,24.937c-4.036,20.656 -16.274,36.014 -35.657,44.747c-14.977,6.749 -33.499,9.298 -48.875,6.727c-22.953,-3.838 -44.723,-17.545 -60.774,-38.267c-1.038,-1.339 -1.947,-2.435 -2.022,-2.435c-0.075,0 -0.009,0.166 0.149,0.369c0.156,0.203 1.327,1.758 2.602,3.456c5.076,6.761 13.087,15.069 19.467,20.19c13.677,10.979 30.337,18.393 45.448,20.227c1.461,0.177 2.988,0.37 3.394,0.429c2.17,0.314 12.369,0.138 15.936,-0.274l-0,-0Zm-1.056,-4.405c26.984,-3.682 46.821,-16.766 55.671,-36.719c4.151,-9.359 5.868,-18.139 5.879,-30.063c0.008,-9.462 -1.145,-18.08 -3.808,-28.456c-2.703,-10.527 -5.883,-19.014 -11.093,-29.601c-7.526,-15.291 -15.837,-27.244 -26.542,-38.172c-7.628,-7.786 -14.133,-12.94 -28.388,-22.49c-9.703,-6.501 -12.952,-8.929 -14.453,-10.803c-1.111,-1.386 -2.037,-3.162 -2.312,-4.437c-0.141,-0.652 -0.333,-0.892 -0.626,-0.78c-0.571,0.219 -0.523,0.883 0.176,2.424c1.329,2.928 3.884,5.05 15.259,12.674c4.862,3.258 10.573,7.226 12.691,8.817c17.662,13.264 30.708,29.299 41.373,50.849c7.454,15.061 12.079,29.781 14.096,44.858c0.674,5.035 0.756,19.318 0.136,23.462c-2.745,18.325 -10.148,31.4 -23.326,41.197c-12.882,9.577 -32.167,15.215 -50.056,14.634c-16.641,-0.541 -32.168,-6.059 -47.075,-16.731c-8.185,-5.859 -16.875,-14.417 -23.146,-22.795c-2.04,-2.725 -2.477,-3.031 -0.691,-0.483c2.771,3.954 7.677,9.782 11.74,13.946c16.606,17.025 35.617,26.714 57.106,29.103c3.379,0.376 13.26,0.129 17.389,-0.434l0,-0Zm-4.846,-4.013c6.529,-0.692 13.774,-2.294 19.853,-4.391c12.102,-4.173 21.702,-10.521 28.802,-19.045c7.421,-8.911 11.98,-20.509 13.338,-33.928c0.445,-4.404 0.193,-16.112 -0.444,-20.625c-2.174,-15.401 -6.514,-29.296 -13.747,-44.017c-7.39,-15.042 -16.243,-27.655 -26.831,-38.231c-7.289,-7.28 -13.723,-12.346 -26.136,-20.58c-4.058,-2.691 -8.507,-5.719 -9.887,-6.728c-4.195,-3.069 -6.655,-6.003 -7.217,-8.61c-0.222,-1.026 -0.657,-1.253 -0.948,-0.494c-0.451,1.175 0.543,2.918 3.106,5.445c2.023,1.996 4.484,3.812 11.89,8.778c13.024,8.731 18.136,12.656 25.285,19.415c18.77,17.744 34.885,47.675 40.172,74.612c1.651,8.413 1.912,11.144 1.923,20.105c0.008,8.916 -0.27,11.748 -1.812,18.297c-5.143,21.845 -20.426,36.959 -44.261,43.771c-13.165,3.762 -26.618,4.374 -39.204,1.781c-20.031,-4.125 -39.844,-17.173 -54.187,-35.685c-2.55,-3.291 -3.451,-4.316 -2.317,-2.637c7.046,10.44 18.16,21.499 28.615,28.473c17.071,11.388 35.475,16.259 54.007,14.294Zm1.105,-4.656c8.812,-1.36 16.793,-3.809 24.127,-7.402c18.396,-9.013 28.707,-23.14 32.216,-44.137c0.766,-4.586 0.774,-18.969 0.012,-24.347c-3.626,-25.619 -15.45,-51.971 -32.442,-72.301c-8.464,-10.127 -17.3,-17.678 -32.397,-27.685c-13.495,-8.945 -15.952,-11.091 -16.87,-14.739c-0.181,-0.719 -0.491,-1.256 -0.724,-1.256c-0.602,-0 -0.502,1.313 0.203,2.697c1.382,2.708 4.634,5.394 13.702,11.32c11.867,7.753 18.312,12.753 25.488,19.772c10.646,10.412 18.888,21.927 26.313,36.759c8.066,16.113 12.86,32.263 14.178,47.767c0.436,5.135 0.204,14.812 -0.458,19.062c-1.154,7.417 -3.083,13.48 -6.242,19.626c-2.582,5.024 -5.229,8.659 -9.256,12.711c-7.479,7.524 -16.173,12.595 -27.457,16.015c-8.349,2.531 -15.37,3.563 -24.336,3.578c-7.077,0.012 -9.447,-0.217 -15.346,-1.476c-20.641,-4.408 -39.953,-17.415 -54.094,-36.436c-3.927,-5.282 -4.151,-5.282 -0.4,0c6.909,9.73 16.372,19.286 25.277,25.528c12.151,8.517 25.014,13.658 38.426,15.358c4.612,0.585 15.001,0.371 20.08,-0.414l0,0Zm-3.319,-4.177c16.464,-2.399 30.664,-8.898 39.905,-18.264c8.577,-8.693 13.395,-18.572 15.629,-32.049c0.759,-4.574 0.763,-18.741 0.009,-23.904c-4.313,-29.469 -19.154,-59.028 -39.64,-78.953c-6.916,-6.726 -12.033,-10.676 -25.345,-19.561c-7.122,-4.754 -9.351,-6.405 -11.399,-8.443c-2.161,-2.15 -2.626,-2.789 -3.079,-4.229c-0.644,-2.051 -1.483,-2.403 -1.23,-0.518c0.377,2.812 3.412,5.532 14.035,12.576c11.022,7.309 16.056,11.116 22.616,17.107c14.674,13.399 28.225,34.945 35.418,56.313c2.817,8.37 4.831,17.083 5.806,25.117c0.593,4.886 0.512,16.851 -0.142,21.101c-1.867,12.129 -6,21.585 -13.035,29.825c-11.028,12.916 -31.924,21.335 -52.826,21.283c-9.547,-0.025 -17.624,-1.573 -26.835,-5.147c-15.732,-6.105 -31.025,-18.343 -41.756,-33.418c-2.002,-2.812 -2.848,-3.832 -1.958,-2.361c1.319,2.181 5.584,7.921 8.31,11.185c3.684,4.41 11.076,11.624 15.186,14.819c13.573,10.553 27.851,16.476 43.659,18.115c3.723,0.386 11.964,0.092 16.674,-0.594l-0.002,-0Zm-4.328,-4.01c4.514,-0.526 9.745,-1.618 14.203,-2.964c26.053,-7.864 40.697,-26.292 42.181,-53.078c1.637,-29.546 -13.348,-66.607 -36.857,-91.153c-6.412,-6.694 -13.461,-12.279 -26.619,-21.091c-4.594,-3.076 -9.282,-6.375 -10.419,-7.33c-2.309,-1.942 -3.854,-4.028 -4.346,-5.869c-0.259,-0.969 -0.442,-1.199 -0.866,-1.088c-0.414,0.108 -0.494,0.318 -0.35,0.918c0.739,3.079 3.619,5.687 13.783,12.477c4.406,2.944 9.273,6.285 10.815,7.423c16.135,11.917 28.073,26.219 37.772,45.247c12.39,24.308 16.99,50.189 12.393,69.728c-2.971,12.631 -9.649,23.065 -19.511,30.488c-13.046,9.818 -33.745,15.109 -51.148,13.073c-12.954,-1.515 -25.382,-6.453 -36.759,-14.604c-8.885,-6.365 -17.828,-15.624 -24.159,-25.012c-1.561,-2.316 -1.906,-2.428 -0.454,-0.148c10.3,16.176 25.375,29.598 41.341,36.808c12.898,5.825 25.245,7.78 39,6.175l-0,0Zm-66.943,-1.409c-0,-0.061 -0.232,-0.294 -0.516,-0.516c-0.469,-0.367 -0.479,-0.357 -0.112,0.111c0.386,0.492 0.628,0.648 0.628,0.405l-0,0Zm65.664,-2.956c16.724,-2.489 30.448,-9.013 39.414,-18.735c7.576,-8.216 12.146,-18.411 13.704,-30.573c0.634,-4.956 0.638,-13.97 0.008,-19.486c-3.076,-26.928 -17.492,-56.473 -37.063,-75.957c-6.493,-6.464 -12.251,-10.943 -25.36,-19.729c-7.512,-5.035 -9.736,-6.721 -11.471,-8.697c-0.985,-1.121 -2.087,-3.301 -2.098,-4.146c-0.008,-0.56 -0.242,-0.639 -0.814,-0.276c-0.264,0.168 -0.289,0.497 -0.092,1.187c0.834,2.907 3.064,4.87 13.505,11.888c13.105,8.809 17.32,12.134 24.439,19.274c13.068,13.109 24.209,31.643 30.72,51.105c1.781,5.324 3.464,12.089 4.362,17.531c6.608,40.06 -11.819,66.843 -50.24,73.021c-14.879,2.393 -28.917,0.186 -42.987,-6.759c-8.968,-4.426 -16.241,-9.769 -23.77,-17.461c-4.576,-4.675 -6.597,-7.052 -10.006,-11.764c-1.174,-1.623 -2.21,-3.017 -2.302,-3.098c-0.462,-0.41 1.216,2.159 3.457,5.291c15.208,21.253 36.352,34.786 58.815,37.646c4.066,0.518 13.473,0.38 17.778,-0.262l0.001,0Zm-66.549,-0.585c-0,-0.061 -0.233,-0.294 -0.517,-0.517c-0.468,-0.367 -0.478,-0.356 -0.111,0.112c0.385,0.491 0.628,0.648 0.628,0.405l-0,-0Zm-1.181,-1.476c0,-0.061 -0.232,-0.294 -0.516,-0.516c-0.468,-0.367 -0.479,-0.357 -0.112,0.111c0.386,0.492 0.628,0.648 0.628,0.405l0,0Zm64.229,-2.119c16.627,-2.15 30.726,-8.859 39.701,-18.893c6.985,-7.809 11.297,-17.606 12.763,-29c0.609,-4.728 0.614,-13.973 0.013,-19.229c-2.904,-25.329 -16.315,-53.424 -34.476,-72.224c-6.677,-6.913 -12.749,-11.724 -25.734,-20.392c-4.395,-2.933 -8.932,-6.205 -10.085,-7.272c-2.036,-1.885 -3.617,-4.311 -3.617,-5.549c-0,-0.371 -0.17,-0.519 -0.517,-0.447c-0.753,0.156 -0.561,1.533 0.44,3.152c1.217,1.969 4.059,4.219 12.324,9.758c12.597,8.443 17.654,12.478 24.648,19.668c5.062,5.203 8.247,9.193 12.815,16.053c11.686,17.549 18.764,35.954 21.165,55.04c0.569,4.514 0.477,15.189 -0.168,19.477c-1.752,11.668 -6.13,21.197 -13.104,28.526c-9.135,9.599 -21.162,15.32 -37.535,17.854c-5.153,0.797 -15.432,0.736 -20.364,-0.122c-15.732,-2.737 -29.512,-9.993 -41.863,-22.043c-4.232,-4.128 -8.167,-8.701 -11.447,-13.301c-3.258,-4.57 -3.406,-4.769 -3.161,-4.273c0.882,1.789 5.026,7.713 7.949,11.362c9.415,11.754 20.864,20.767 33.499,26.372c7.651,3.394 15.311,5.292 24.467,6.061c2.198,0.185 8.786,-0.125 12.288,-0.578l-0.001,-0Zm-64.819,-1.127c-0,-0.061 -0.232,-0.294 -0.517,-0.516c-0.468,-0.368 -0.478,-0.357 -0.111,0.111c0.386,0.491 0.628,0.648 0.628,0.405l-0,0Zm63.893,-3.272c15.441,-2.399 28.295,-8.76 36.98,-18.3c6.757,-7.423 10.958,-17.167 12.472,-28.929c0.442,-3.433 0.452,-13.035 0.017,-16.822c-1.557,-13.575 -5.528,-26.709 -12.136,-40.136c-6.191,-12.58 -13.758,-23.346 -22.723,-32.326c-6.55,-6.563 -11.481,-10.435 -23.255,-18.265c-10.415,-6.925 -12.726,-8.965 -13.651,-12.05c-0.358,-1.195 -0.918,-1.599 -1.318,-0.951c-0.301,0.486 0.405,2.22 1.421,3.492c1.487,1.86 4.418,4.094 11.797,8.992c15.55,10.322 23.612,17.515 31.846,28.416c16.259,21.526 26.198,49.669 25.21,71.386c-0.434,9.541 -2.029,16.232 -5.627,23.61c-2.347,4.812 -4.834,8.345 -8.423,11.964c-9.791,9.872 -23.591,15.653 -40.874,17.122c-6.279,0.534 -13.779,-0.166 -20.644,-1.927c-13.474,-3.455 -25.785,-10.864 -36.609,-22.031c-4.388,-4.527 -7.453,-8.333 -11.022,-13.683c-3.85,-5.772 -4.081,-5.925 -0.676,-0.446c11.708,18.834 28.565,32.66 46.896,38.465c3.804,1.205 7.866,2.133 11.873,2.714c3.791,0.55 14.068,0.385 18.445,-0.295l0.001,0Zm-3.394,-4.155c21.014,-3.164 36.504,-13.273 43.804,-28.585c3.627,-7.608 5.261,-15.557 5.253,-25.556c-0.008,-11.26 -2.279,-22.871 -6.863,-35.094c-6.258,-16.684 -15.245,-31.087 -26.691,-42.772c-6.783,-6.926 -10.974,-10.249 -23.619,-18.728c-9.101,-6.102 -11.831,-8.473 -12.731,-11.051c-0.376,-1.08 -0.698,-1.549 -1.061,-1.549c-0.691,-0 -0.673,0.906 0.048,2.319c0.964,1.89 4.232,4.613 10.744,8.953c12.594,8.392 17.813,12.531 24.544,19.462c11.915,12.268 21.735,28.988 27.536,46.882c8.752,26.996 5.847,50.781 -7.986,65.395c-8.223,8.686 -18.968,14.002 -33.44,16.543c-4.227,0.742 -5.374,0.825 -11.343,0.821c-7.058,-0.005 -9.624,-0.298 -15.356,-1.752c-4.723,-1.197 -8.749,-2.711 -13.713,-5.157c-8.066,-3.975 -14.283,-8.488 -21.119,-15.329c-4.756,-4.76 -8.03,-8.758 -11.639,-14.214c-1.461,-2.208 -2.828,-4.268 -3.037,-4.577c-0.21,-0.308 0.044,0.236 0.565,1.21c0.52,0.974 1.905,3.231 3.078,5.017c9.268,14.114 20.81,24.583 34.513,31.304c7.652,3.753 15.317,6.045 23.019,6.884c3.506,0.381 11.615,0.159 15.494,-0.426l0,0Zm-3.246,-4.157c4.312,-0.531 11.346,-2.256 15.513,-3.804c4.048,-1.504 9.767,-4.497 13.113,-6.865c3.485,-2.465 8.127,-7.087 10.53,-10.487c4.57,-6.464 7.478,-14.24 8.684,-23.221c0.472,-3.519 0.474,-12.777 0.003,-16.674c-2.932,-24.264 -14.908,-49.406 -31.879,-66.922c-6.169,-6.367 -10.893,-10.127 -22.871,-18.201c-4.333,-2.92 -8.597,-5.925 -9.477,-6.676c-1.855,-1.585 -3.299,-3.628 -3.564,-5.043c-0.102,-0.544 -0.226,-0.99 -0.277,-0.99c-0.049,-0 -0.3,0.081 -0.557,0.179c-1.215,0.467 0.173,3.204 2.806,5.531c0.878,0.776 4.705,3.487 8.504,6.025c8.058,5.381 12.493,8.651 17,12.534c18.848,16.236 33.59,44.094 36.924,69.775c0.654,5.041 0.656,14.436 0.004,18.801c-1.834,12.276 -6.764,21.869 -14.925,29.04c-9.059,7.961 -21.576,12.764 -36.356,13.95c-24.574,1.973 -50.211,-12.766 -65.727,-37.788c-2.724,-4.391 -2.965,-4.717 -1.636,-2.213c4.152,7.828 12.049,18.008 18.443,23.777c8.833,7.969 17.171,13.014 27.253,16.49c5.158,1.779 10.531,2.847 16.982,3.379c2.127,0.175 7.518,-0.105 11.509,-0.597l0.001,0Zm-62.86,-3.172c-0,-0.061 -0.233,-0.293 -0.517,-0.516c-0.468,-0.368 -0.478,-0.357 -0.111,0.111c0.385,0.492 0.628,0.648 0.628,0.405l-0,0Zm62.122,-1.329c24.255,-4.122 39.767,-17.842 43.789,-38.731c4.822,-25.049 -7.088,-59.849 -28.529,-83.356c-6.01,-6.589 -11.986,-11.447 -23.671,-19.243c-9.021,-6.019 -12.102,-8.702 -12.742,-11.096c-0.259,-0.968 -0.506,-1.359 -0.823,-1.299c-0.802,0.152 -0.674,1.491 0.281,2.933c1.236,1.867 3.23,3.445 10.481,8.296c16.907,11.313 24.49,18.425 32.997,30.947c15.552,22.893 22.72,49.645 18.778,70.075c-3.144,16.289 -13.279,28.123 -29.43,34.361c-11.348,4.383 -24.358,5.541 -35.921,3.196c-9.517,-1.93 -20.077,-7.069 -28.774,-14.004c-3.306,-2.636 -9.629,-9.002 -12.427,-12.511c-2.585,-3.243 -5.534,-7.485 -7.336,-10.551c-0.692,-1.177 -1.312,-2.139 -1.379,-2.139c-0.401,-0 3.942,7.102 6.741,11.023c13.107,18.357 31.275,29.951 51.143,32.635c3.36,0.454 12.759,0.154 16.822,-0.536l0,-0Zm-3.984,-4.04c15.263,-2.199 27.996,-9.009 35.521,-18.998c12.851,-17.06 12.202,-44.51 -1.729,-73.058c-5.82,-11.928 -12.746,-21.646 -21.475,-30.133c-5.335,-5.187 -9.284,-8.253 -19.252,-14.947c-9.027,-6.063 -11.687,-8.367 -12.299,-10.657c-0.362,-1.351 -0.986,-1.789 -1.318,-0.925c-0.465,1.211 0.915,3.222 3.8,5.539c1.017,0.817 4.438,3.21 7.603,5.319c12.86,8.567 19.562,14.347 26.246,22.637c12.657,15.697 21.306,35.394 23.78,54.154c0.923,6.993 0.521,16.922 -0.92,22.724c-5.139,20.706 -21.686,33.101 -47.11,35.292c-10.592,0.913 -22.496,-1.835 -33.131,-7.649c-11.573,-6.327 -22.663,-17.407 -29.808,-29.782c-0.774,-1.339 -1.458,-2.435 -1.52,-2.435c-0.413,0 3.99,7.407 6.491,10.92c8.511,11.953 18.162,20.397 29.854,26.122c6.739,3.299 13.166,5.298 19.361,6.02c1.525,0.178 3.238,0.377 3.806,0.443c1.85,0.214 8.927,-0.128 12.1,-0.586Zm0.095,-4.671c16.891,-3.226 29.218,-11.656 35.598,-24.345c8.21,-16.328 6.058,-40.477 -5.749,-64.516c-5.628,-11.459 -11.735,-20.099 -20.026,-28.331c-5.397,-5.359 -9.211,-8.355 -19.067,-14.979c-4.139,-2.782 -8.369,-5.862 -9.4,-6.845c-1.806,-1.72 -2.995,-3.479 -2.995,-4.43c0,-0.457 -1.039,-0.648 -1.267,-0.233c-0.067,0.122 0.003,0.681 0.155,1.243c0.463,1.713 3.707,4.544 9.946,8.68c11.611,7.696 17.332,12.312 22.971,18.534c14.206,15.676 24.502,37.984 26.641,57.723c0.536,4.947 0.217,14.996 -0.597,18.808c-2.969,13.91 -10.527,23.797 -22.877,29.931c-4.219,2.096 -8.297,3.542 -12.873,4.564c-14.359,3.207 -27.055,1.75 -39.784,-4.566c-13.165,-6.533 -24.546,-17.768 -32.513,-32.093c-0.959,-1.724 -1.743,-3.015 -1.743,-2.87c0,0.549 3.986,7.541 6.319,11.084c6.195,9.411 13.867,17.242 22.603,23.07c5.98,3.99 14.657,7.776 21.248,9.272c4.647,1.054 7.133,1.274 13.281,1.175c5.032,-0.081 6.736,-0.228 10.129,-0.876l-0,0Zm-8.126,-3.44c4.272,-0.464 9.644,-1.612 13.557,-2.897c26.183,-8.597 36.45,-31.956 28.121,-63.983c-4.51,-17.343 -14.341,-34.786 -26.417,-46.871c-4.781,-4.786 -9.975,-8.88 -18.931,-14.923c-4.129,-2.785 -8.239,-5.734 -9.134,-6.552c-1.662,-1.519 -2.775,-3.259 -2.775,-4.337c0,-0.632 -0.461,-0.768 -1.141,-0.337c-0.725,0.459 0.194,2.377 1.999,4.172c0.908,0.902 4.307,3.416 7.553,5.586c7.298,4.878 11.53,7.999 15.537,11.458c15.655,13.515 27.933,35.88 31.87,58.053c0.588,3.316 0.682,4.838 0.689,11.215c0.009,6.547 -0.068,7.754 -0.669,10.721c-2.798,13.812 -10.308,23.619 -22.637,29.561c-8.825,4.254 -20.364,6.447 -29.617,5.63c-20.853,-1.842 -39.714,-15.095 -51.9,-36.468c-1.018,-1.786 -1.852,-3.121 -1.852,-2.968c-0.001,0.154 0.881,1.877 1.961,3.83c8.68,15.7 20.096,26.968 34.096,33.655c9.653,4.61 19.987,6.509 29.69,5.455l0,0Zm0.21,-4.584c5.927,-0.875 11.497,-2.547 16.562,-4.972c19.61,-9.387 27.396,-28.873 21.958,-54.953c-3.692,-17.704 -13.357,-35.953 -25.827,-48.765c-5.26,-5.404 -9.921,-9.135 -19.307,-15.456c-8.272,-5.571 -10.458,-7.462 -11.011,-9.527c-0.294,-1.1 -0.47,-1.318 -1.066,-1.318c-0.646,0 -0.695,0.089 -0.523,0.952c0.445,2.221 2.921,4.489 9.77,8.951c9.792,6.379 15.655,11.139 21.188,17.206c10.886,11.934 20.039,29.745 23.354,45.445c1.665,7.886 2.115,16.58 1.193,23.063c-2.014,14.173 -9.546,24.625 -22.125,30.701c-12.247,5.915 -26.84,7.203 -39.546,3.49c-9.774,-2.856 -18.999,-8.684 -27.302,-17.248c-5.25,-5.415 -9.161,-10.806 -12.961,-17.866c-1.721,-3.197 -2.002,-3.313 -0.425,-0.175c4.407,8.77 9.507,15.887 16.016,22.352c5.665,5.625 11.64,9.896 18.327,13.097c10.586,5.069 20.635,6.66 31.725,5.023l-0,-0Zm-4.567,-3.973c15.219,-1.884 27.135,-8.439 33.925,-18.661c10.01,-15.072 8.743,-38.865 -3.357,-63.012c-4.83,-9.638 -10.439,-17.478 -17.567,-24.555c-4.818,-4.784 -8.958,-8.036 -17.526,-13.77c-3.54,-2.369 -7.166,-4.975 -8.059,-5.79c-1.657,-1.515 -2.769,-3.255 -2.769,-4.333c-0,-0.445 -0.192,-0.602 -0.738,-0.602c-0.891,0 -0.977,0.736 -0.261,2.245c0.742,1.563 3.219,3.624 9.055,7.536c6.678,4.475 10.22,7.074 13.641,10.006c14.922,12.789 26.361,33.563 30.138,54.731c0.763,4.273 0.768,16.013 0.009,19.762c-3.891,19.209 -17.815,30.539 -40.482,32.942c-7.556,0.801 -16.725,-0.691 -24.365,-3.966c-7.297,-3.127 -12.814,-6.868 -18.976,-12.868c-5.591,-5.442 -10.362,-11.773 -14.024,-18.606c-0.827,-1.542 -1.505,-2.683 -1.507,-2.535c-0.002,0.147 0.77,1.741 1.717,3.541c8.949,17.019 21.847,29.139 37.087,34.85c3.527,1.321 8.719,2.673 11.706,3.047c3.061,0.384 9.404,0.403 12.354,0.038l-0.001,0Zm-3.801,-4.132c8.715,-0.885 17.39,-3.796 23.567,-7.907c8.839,-5.885 14.2,-14.424 16.146,-25.718c0.681,-3.955 0.664,-12.596 -0.034,-17.268c-2.78,-18.597 -12.653,-38.279 -25.794,-51.42c-4.176,-4.176 -8.944,-7.922 -16.879,-13.26c-3.652,-2.457 -7.276,-5.028 -8.054,-5.713c-1.532,-1.349 -2.57,-3.07 -2.57,-4.26c0,-0.603 -0.144,-0.75 -0.738,-0.75c-0.64,0 -0.737,0.131 -0.737,0.989c-0,2.119 1.904,3.904 9.738,9.13c11.725,7.821 17.488,13.002 23.868,21.459c9.028,11.969 15.428,26.882 17.792,41.464c0.593,3.656 0.511,14.403 -0.136,17.707c-2.418,12.366 -8.783,20.977 -19.584,26.494c-7.635,3.9 -16.399,5.773 -25.441,5.437c-12.995,-0.483 -24.963,-5.901 -35.485,-16.062c-5.218,-5.04 -8.937,-9.909 -12.949,-16.955c-2.324,-4.08 -2.683,-4.397 -0.851,-0.752c7.281,14.491 18.819,26.294 31.686,32.412c8.796,4.183 17.718,5.86 26.455,4.973l-0,-0Zm-50.213,-2.346c-0.174,-0.325 -0.382,-0.59 -0.463,-0.59c-0.081,-0 -0.005,0.265 0.168,0.59c0.173,0.325 0.382,0.59 0.463,0.59c0.081,0 0.004,-0.265 -0.168,-0.59Zm47.477,-1.916c5.726,-0.393 13.191,-2.436 18.336,-5.02c10.961,-5.505 17.399,-14.009 19.824,-26.187c0.539,-2.71 0.663,-4.332 0.669,-8.784c0.004,-3.003 -0.164,-6.655 -0.373,-8.116c-2.711,-18.956 -12.221,-37.861 -25.623,-50.935c-4.268,-4.163 -7.933,-7.023 -15.496,-12.092c-8.448,-5.663 -10.285,-7.429 -10.285,-9.884c-0,-0.862 -0.094,-1.043 -0.467,-0.9c-0.257,0.099 -0.589,0.179 -0.738,0.179c-0.503,0 -0.275,2.137 0.334,3.123c0.84,1.358 2.643,2.791 7.954,6.319c7.726,5.132 12.241,8.682 16.691,13.125c14.575,14.55 24.629,37.484 24.625,56.171c-0.003,11.3 -3.07,19.944 -9.488,26.744c-6.832,7.237 -16.493,11.442 -28.997,12.621c-5.968,0.562 -12.166,-0.211 -18.472,-2.305c-13.868,-4.605 -25.707,-15.179 -34.116,-30.468c-1.038,-1.889 -1.888,-3.325 -1.888,-3.192c-0.001,0.133 0.856,1.926 1.902,3.984c9.351,18.382 24.756,31.184 41.955,34.867c3.023,0.647 8.281,1.169 10.149,1.008c0.568,-0.049 2.145,-0.165 3.504,-0.258l-0,-0Zm2.841,-5.001c8.632,-1.793 15.862,-5.245 21.041,-10.043c5.197,-4.815 8.845,-11.802 10.307,-19.742c0.7,-3.802 0.687,-12.496 -0.026,-16.862c-2.28,-13.978 -8.002,-27.315 -16.714,-38.964c-6.056,-8.097 -11.855,-13.276 -23.609,-21.086c-7.415,-4.926 -8.854,-6.349 -8.854,-8.757c0,-1.063 -0.096,-1.284 -0.559,-1.284c-1.161,0 -1.264,2.366 -0.167,3.853c1.017,1.381 2.306,2.37 8.842,6.786c6.857,4.633 10.283,7.339 14.277,11.278c14.745,14.542 24.605,37.815 23.848,56.29c-0.271,6.597 -1.508,11.584 -4.124,16.616c-3.652,7.025 -9.89,12.443 -17.987,15.622c-10.639,4.176 -22.321,4.577 -32.688,1.121c-2.999,-0.999 -8.334,-3.656 -11.463,-5.707c-8.948,-5.867 -15.916,-13.826 -21.495,-24.553c-1.182,-2.273 -2.152,-4.019 -2.155,-3.881c-0.013,0.494 3.499,7.567 5.143,10.361c2.149,3.651 6.213,9.037 9.315,12.345c9.075,9.678 20.822,15.876 33.05,17.438c0.568,0.072 3.157,0.081 5.754,0.017c3.543,-0.085 5.607,-0.297 8.264,-0.849l-0,0.001Zm-3.652,-4.019c1.846,-0.331 4.924,-1.124 6.84,-1.763c14.423,-4.81 22.639,-14.74 24.402,-29.495c1.761,-14.746 -4.607,-35.126 -15.647,-50.077c-6.236,-8.443 -11.468,-13.216 -22.757,-20.758c-7.486,-5.002 -9.107,-6.627 -9.107,-9.135c0,-0.784 -0.132,-1.195 -0.383,-1.195c-0.71,-0 -1.092,0.7 -1.092,2c-0,1.181 0.146,1.439 1.696,2.985c0.934,0.93 3.291,2.735 5.239,4.01c10.026,6.565 15.411,11.095 20.354,17.123c9.01,10.986 15.289,24.554 17.752,38.365c0.813,4.558 0.74,13.45 -0.145,17.552c-1.376,6.38 -3.828,11.292 -7.712,15.449c-6.208,6.645 -14.821,10.513 -26.118,11.728c-14.923,1.605 -30.94,-5.794 -41.833,-19.327c-3.124,-3.881 -5.219,-7.116 -7.661,-11.827c-1.093,-2.11 -1.991,-3.691 -1.996,-3.514c-0.017,0.734 4.805,9.932 6.641,12.663c9.938,14.788 23.736,23.997 38.652,25.797c3.249,0.392 8.857,0.139 12.875,-0.581l0,-0Zm-1.756,-4.392c8.212,-1.76 14.535,-4.909 19.495,-9.708c6.007,-5.812 9.101,-13.217 9.578,-22.921c0.865,-17.586 -8.789,-40.292 -22.967,-54.017c-4.033,-3.904 -6.152,-5.558 -13.467,-10.509c-8.412,-5.693 -9.409,-6.719 -9.15,-9.41c0.115,-1.2 0.065,-1.369 -0.373,-1.254c-0.679,0.177 -1.266,1.336 -1.235,2.435c0.051,1.813 1.512,3.141 8.771,7.98c10.631,7.086 16,12.283 21.949,21.246c12.524,18.867 16.394,40.398 9.793,54.484c-4.599,9.814 -13.489,15.888 -26.533,18.129c-4.151,0.713 -10.058,0.76 -13.937,0.109c-14.929,-2.502 -28.431,-13.326 -36.782,-29.488c-1.174,-2.272 -2.139,-3.999 -2.143,-3.836c-0.004,0.162 1.04,2.42 2.322,5.017c3.783,7.669 7.023,12.222 12.703,17.854c8.051,7.984 17.31,12.879 27.322,14.447c2.962,0.463 11.386,0.143 14.654,-0.558l0,0Zm-6.191,-3.705c17.02,-2.249 27.956,-11.772 30.674,-26.71c0.589,-3.237 0.499,-11.779 -0.163,-15.494c-1.85,-10.383 -6.121,-20.992 -11.953,-29.684c-6.126,-9.133 -11.068,-13.913 -22.01,-21.29c-6.255,-4.217 -7.608,-5.274 -8.407,-6.567c-0.643,-1.04 -0.779,-2.799 -0.289,-3.715c0.44,-0.822 -0.164,-0.74 -1.045,0.141c-1.007,1.008 -1.177,1.99 -0.566,3.278c0.633,1.334 2.15,2.554 8.241,6.631c2.597,1.739 5.779,4.001 7.071,5.028c7.715,6.134 13.575,13.584 18.574,23.615c6.891,13.824 9.079,26.942 6.34,38.017c-2.986,12.077 -12.329,19.949 -26.899,22.665c-4.058,0.757 -10.969,0.686 -14.894,-0.151c-5.531,-1.181 -10.262,-3.209 -15.192,-6.513c-7.978,-5.347 -14.216,-12.651 -19.006,-22.255c-1.066,-2.138 -1.849,-3.556 -1.74,-3.15c0.418,1.549 4.9,10.293 6.505,12.69c7.24,10.815 16.675,18.343 27.324,21.803c6.135,1.993 11.24,2.479 17.435,1.661l0,-0Zm-1.091,-4.444c11.425,-1.774 20.478,-7.786 24.863,-16.512c7.709,-15.338 1.341,-41.282 -14.612,-59.532c-3.939,-4.506 -7.873,-7.749 -16.097,-13.266c-4.768,-3.199 -6.508,-4.63 -7.159,-5.888c-0.497,-0.96 -0.55,-2.421 -0.118,-3.228c0.346,-0.645 0.204,-0.706 -0.617,-0.267c-0.813,0.435 -1.54,1.987 -1.328,2.834c0.326,1.299 2.256,3.034 6.728,6.049c8.558,5.769 11.835,8.499 16.049,13.368c11.134,12.865 18.045,31.733 16.69,45.571c-1.294,13.231 -8.748,22.095 -21.745,25.862c-9.853,2.855 -19.755,2.026 -28.597,-2.394c-9.668,-4.833 -17.334,-12.905 -22.946,-24.159c-2.281,-4.575 -2.404,-4.351 -0.257,0.467c2.978,6.684 6.913,12.463 11.961,17.57c5.204,5.266 9.695,8.403 15.641,10.928c7.162,3.041 13.648,3.823 21.544,2.597l-0,0Zm-3.394,-4.103c12.338,-1.874 21.688,-8.542 25.239,-18c1.716,-4.571 2.047,-6.642 2.03,-12.706c-0.013,-4.92 -0.113,-6.072 -0.812,-9.399c-2.371,-11.282 -7.625,-22.24 -14.81,-30.885c-3.989,-4.8 -9.548,-9.502 -16.812,-14.219c-3.972,-2.58 -5.937,-4.184 -6.531,-5.332c-0.554,-1.072 -0.594,-2.736 -0.081,-3.354c0.669,-0.806 -0.345,-0.432 -1.231,0.454c-2.003,2.002 -0.788,3.66 6.05,8.262c7.816,5.259 11.409,8.311 15.404,13.085c10.186,12.171 16.432,29.534 15.192,42.233c-0.561,5.74 -1.992,9.996 -4.706,13.993c-4.019,5.918 -10.9,9.965 -20.002,11.765c-3.622,0.716 -10.304,0.708 -13.686,-0.017c-7.503,-1.607 -14.136,-5.228 -20.031,-10.933c-5.13,-4.967 -9.211,-10.804 -11.91,-17.037c-0.682,-1.576 -1.283,-2.823 -1.335,-2.772c-0.19,0.191 1.226,3.667 2.906,7.131c7.329,15.121 20.619,25.767 34.756,27.843c2.692,0.396 7.357,0.345 10.37,-0.113l-0,0.001Zm-0.63,-4.58c12.337,-2.514 20.379,-9.663 23.121,-20.555c0.571,-2.265 0.658,-3.379 0.649,-8.227c-0.008,-4.64 -0.124,-6.142 -0.667,-8.706c-1.464,-6.917 -4.082,-13.844 -7.501,-19.848c-5.63,-9.886 -11.487,-15.834 -23.275,-23.632c-1.889,-1.249 -3.98,-2.864 -4.648,-3.589c-1.034,-1.12 -1.215,-1.508 -1.215,-2.597c0,-1.027 0.169,-1.441 0.858,-2.101c0.903,-0.865 1.25,-0.984 25.26,-8.622c7.855,-2.499 10.77,-3.55 11.183,-4.032c0.809,-0.944 2.442,-4.498 3.012,-6.555c0.74,-2.674 0.892,-9.442 0.291,-12.97c-1.321,-7.747 -4.721,-14.671 -9.786,-19.925c-6.991,-7.252 -16.612,-10.912 -27.719,-10.546c-4.942,0.163 -8.471,0.9 -12.031,2.514c-10.44,4.734 -18.706,17.118 -23.515,35.229c-1.23,4.633 -2.062,15.232 -2.673,34.029c-0.501,15.454 -0.166,40.967 0.603,45.809c0.353,2.219 2.695,7.871 4.755,11.471c5.607,9.8 13.792,17.279 22.974,20.99c6.755,2.731 13.176,3.32 20.324,1.863l-0,0Zm-44.046,-10.827c-0.249,-0.461 -0.459,-0.745 -0.466,-0.631c-0.021,0.351 0.667,1.721 0.797,1.591c0.068,-0.067 -0.081,-0.5 -0.331,-0.96l0,-0Zm126.719,-65.138c-0,-0.061 -0.233,-0.294 -0.517,-0.516c-0.468,-0.367 -0.478,-0.357 -0.111,0.111c0.385,0.492 0.628,0.648 0.628,0.405l-0,0Zm-5.608,-2.082c0,-0.07 -0.431,-0.413 -0.959,-0.762l-0.959,-0.635l0.885,0.761c0.908,0.78 1.033,0.857 1.033,0.636Zm-12.69,-5.026c0,-0.076 -0.299,-0.282 -0.664,-0.459c-0.637,-0.309 -0.641,-0.304 -0.091,0.137c0.602,0.482 0.755,0.547 0.755,0.321l0,0.001Zm-3.393,-2.223c-0.1,-0.161 -0.472,-0.435 -0.829,-0.61c-0.557,-0.272 -0.545,-0.232 0.091,0.288c0.826,0.675 1.005,0.754 0.738,0.323l0,-0.001Zm-4.28,-2.783c0,-0.069 -1.292,-1.026 -2.871,-2.127c-3.355,-2.339 -7.211,-5.923 -8.2,-7.622c-0.382,-0.656 -0.852,-1.823 -1.044,-2.594c-0.335,-1.343 -0.649,-1.703 -0.996,-1.141c-0.309,0.499 0.66,2.977 1.734,4.441c1.246,1.697 4.403,4.393 8.426,7.195c2.915,2.031 2.951,2.054 2.951,1.848Zm1.476,-0.873c-0,-0.063 -0.365,-0.336 -0.812,-0.608l-0.811,-0.494l0.696,0.608c0.68,0.593 0.927,0.724 0.927,0.494Zm-1.771,-1.194c0,-0.07 -0.431,-0.414 -0.959,-0.763l-0.959,-0.634l0.885,0.76c0.908,0.78 1.033,0.857 1.033,0.637Zm1.771,-0.575c-0,-0.061 -0.232,-0.294 -0.517,-0.516c-0.468,-0.367 -0.478,-0.357 -0.111,0.111c0.385,0.492 0.628,0.648 0.628,0.405l-0,0Zm-3.837,-0.881c0,-0.06 -1.014,-0.947 -2.253,-1.972c-2.808,-2.323 -4.702,-4.849 -5.33,-7.108c-0.481,-1.731 -0.975,-2.048 -0.975,-0.627c-0,1.988 2.151,4.824 5.988,7.894c2.343,1.875 2.57,2.035 2.57,1.813Zm1.623,-0.854c-4.131,-3.296 -6.476,-6.221 -7.214,-8.999c-0.376,-1.413 -0.905,-1.674 -0.895,-0.443c0.017,2.091 2.456,5.234 6.626,8.539c1.294,1.025 2.423,1.86 2.508,1.855c0.086,-0.005 -0.375,-0.434 -1.025,-0.952Zm2.509,-0.034c-0,-0.061 -0.232,-0.294 -0.517,-0.516c-0.468,-0.368 -0.478,-0.357 -0.111,0.111c0.386,0.491 0.628,0.648 0.628,0.405l-0,0Zm-3.465,-3.078c-2.385,-2.319 -3.557,-4.131 -4.19,-6.481c-0.447,-1.662 -1.046,-1.668 -0.781,-0.008c0.34,2.126 1.886,4.249 5.161,7.087c1.071,0.928 1.999,1.691 2.064,1.697c0.064,0.004 -0.95,-1.027 -2.254,-2.295l0,0Zm-27.416,-7.402c0.933,-0.808 2.827,-4.936 3.505,-7.641c0.846,-3.372 0.909,-10.122 0.131,-14.015c-2.484,-12.427 -9.441,-22.063 -19.632,-27.195c-8.214,-4.137 -18.942,-5.347 -27.652,-3.12c-9.329,2.386 -16.637,8.965 -22.715,20.448c-2.011,3.8 -2.132,4.516 -0.173,1.023c5.447,-9.71 12.258,-15.54 20.834,-17.833c2.711,-0.724 3.432,-0.791 8.853,-0.813c6.425,-0.026 8.226,0.209 12.69,1.655c10.975,3.554 18.591,11.284 22.434,22.769c1.564,4.674 2.001,7.816 1.831,13.18c-0.164,5.196 -0.735,7.733 -2.444,10.855c-0.558,1.02 -1.015,1.909 -1.015,1.975c0,0.251 2.831,-0.835 3.353,-1.288l0,0Zm2.662,-0.573c1.273,-0.435 1.574,-0.715 2.589,-2.402c2.588,-4.302 3.827,-10.824 3.225,-16.986c-0.776,-7.95 -3.83,-16.059 -8.291,-22.016c-5.348,-7.141 -13.296,-12.092 -22.696,-14.137c-11.316,-2.461 -22.24,-0.559 -29.979,5.222c-4.645,3.47 -9.231,9.04 -12.534,15.224c-1.647,3.083 -1.875,3.999 -0.293,1.18c2.605,-4.645 7.105,-9.937 10.909,-12.829c4.028,-3.062 9.22,-5.095 14.986,-5.867c3.511,-0.47 10.959,-0.162 14.269,0.59c13.623,3.096 23.228,11.774 27.636,24.968c1.665,4.984 1.987,7.137 1.964,13.132c-0.021,5.072 -0.079,5.649 -0.829,8.116c-0.444,1.461 -1.262,3.486 -1.818,4.501c-0.555,1.014 -0.913,1.834 -0.794,1.821c0.118,-0.013 0.864,-0.246 1.656,-0.517l-0,0Zm5.586,-2.071c0.847,-0.735 3.1,-5.573 3.8,-8.161c0.542,-2.001 0.642,-3.192 0.661,-7.82c0.017,-4.704 -0.074,-5.888 -0.67,-8.551c-4.173,-18.648 -16.088,-30.292 -34.137,-33.362c-3.321,-0.564 -4.519,-0.629 -8.996,-0.486c-5.357,0.172 -7.494,0.515 -11.458,1.839c-8.51,2.842 -15.818,9.811 -22.043,21.022c-0.929,1.672 -1.606,3.122 -1.505,3.222c0.1,0.1 0.182,0.048 0.182,-0.117c0,-0.526 3.274,-5.763 5.129,-8.204c5.666,-7.457 12.053,-11.698 20.312,-13.484c4.359,-0.943 13.158,-0.943 17.554,-0c10.534,2.258 19.146,7.837 24.426,15.821c6.6,9.98 9.081,22.404 6.493,32.515c-0.358,1.4 -1.275,3.513 -3.021,6.965c-0.178,0.352 2.702,-0.703 3.274,-1.199l-0.001,-0Zm2.594,-0.493c1.583,-0.539 2.838,-2.262 4.297,-5.897c1.526,-3.802 2.016,-6.722 2.004,-11.952c-0.013,-5.282 -0.677,-9.299 -2.391,-14.439c-5.567,-16.692 -18.01,-26.915 -35.812,-29.42c-3.978,-0.56 -11.166,-0.403 -14.749,0.321c-7.172,1.45 -13.098,4.645 -18.317,9.876c-3.707,3.715 -7.559,9.044 -9.986,13.815c-0.978,1.923 -0.565,1.494 0.85,-0.885c4.293,-7.214 10.357,-13.185 16.528,-16.274c5.317,-2.662 9.833,-3.573 17.558,-3.54c6.041,0.025 8.972,0.456 14.096,2.075c8.295,2.62 15.945,8.267 20.533,15.156c8.345,12.532 10.345,29.098 4.764,39.473c-0.632,1.176 -1.047,2.139 -0.92,2.139c0.127,0 0.822,-0.201 1.545,-0.448l0,0Zm5.683,-2.175c0.88,-0.764 3.355,-6.173 3.999,-8.739c2.099,-8.362 0.983,-18.541 -3.088,-28.184c-5.686,-13.467 -16.686,-22.575 -31.13,-25.777c-10.757,-2.384 -21.627,-1.446 -29.515,2.548c-7.202,3.647 -14.179,10.797 -18.997,19.467c-1.224,2.202 -1.265,2.756 -0.051,0.684c1.462,-2.495 5.193,-7.252 7.477,-9.533c7.605,-7.595 15.812,-10.799 27.67,-10.802c5.471,-0.002 7.713,0.28 12.775,1.603c15.879,4.151 26.898,16.007 30.952,33.306c0.907,3.87 1.26,11.551 0.707,15.395c-0.451,3.138 -1.819,7.288 -3.132,9.504c-0.56,0.945 -1.018,1.767 -1.018,1.826c-0,0.244 2.844,-0.857 3.35,-1.298l0.001,0Zm2.582,-0.481c1.135,-0.387 1.483,-0.722 2.525,-2.435c6.161,-10.121 5.551,-25.875 -1.549,-40.012c-7.94,-15.811 -23.759,-25.082 -42.766,-25.064c-11.981,0.011 -20.546,3.28 -28.436,10.854c-4.119,3.954 -7.304,8.09 -10.228,13.28c-1.122,1.992 -0.554,1.38 1.298,-1.399c6.706,-10.058 14.945,-16.053 25.119,-18.278c2.758,-0.603 3.876,-0.677 10.181,-0.672c6.245,0.006 7.45,0.086 10.182,0.677c14.663,3.172 25.353,11.421 31.57,24.362c6.011,12.512 6.665,27.217 1.63,36.7c-0.71,1.339 -1.191,2.435 -1.067,2.435c0.123,0 0.817,-0.202 1.541,-0.448Zm5.813,-2.42c1.178,-1.425 3.255,-6.026 4.026,-8.918c2.899,-10.884 0.636,-24.697 -5.951,-36.334c-2.292,-4.049 -4.172,-6.477 -7.882,-10.182c-7.402,-7.392 -16.999,-11.835 -28.996,-13.426c-3.868,-0.513 -13.003,-0.21 -16.473,0.546c-7.541,1.642 -13.126,4.504 -18.971,9.721c-3.757,3.352 -8.596,9.617 -11.573,14.98c-1.301,2.345 -1.012,2.035 1.105,-1.181c6.848,-10.407 14.976,-16.84 24.386,-19.302c4.679,-1.225 8.449,-1.589 14.644,-1.413c4.581,0.129 6.484,0.316 9.33,0.915c10.17,2.142 19.079,7.121 25.227,14.097c8.962,10.171 13.911,25.602 12.335,38.462c-0.576,4.702 -1.835,8.758 -3.657,11.784c-0.568,0.943 -1.033,1.759 -1.033,1.813c0,0.053 0.631,-0.091 1.402,-0.322c0.812,-0.242 1.687,-0.764 2.081,-1.24l-0,0Zm2.82,-0.362c2.247,-0.854 5.562,-8.601 6.413,-14.984c0.535,-4.016 0.184,-11.525 -0.747,-15.952c-1.985,-9.443 -6,-17.885 -11.785,-24.777c-12.369,-14.738 -35.813,-21.03 -55.223,-14.82c-7.182,2.297 -14.237,7.414 -19.856,14.4c-2.241,2.785 -5.237,7.131 -5.931,8.603l-0.349,0.737l0.525,-0.732c6.567,-9.159 11.604,-13.939 18.269,-17.333c5.664,-2.885 10.896,-4.138 18.425,-4.415c12.07,-0.443 22.546,2.325 31.686,8.371c3.933,2.601 9.67,8.318 12.234,12.191c9.053,13.673 11.839,31.642 6.841,44.124c-0.477,1.191 -1.183,2.673 -1.569,3.294c-1.287,2.068 -1.264,1.971 -0.424,1.76c0.423,-0.106 1.094,-0.317 1.491,-0.467l0,-0Zm5.279,-2.147c1.989,-2.518 4.235,-7.987 5.142,-12.521c0.722,-3.609 0.726,-12.401 0.009,-16.336c-3.055,-16.718 -11.62,-30.25 -23.884,-37.731c-15.179,-9.259 -35.755,-10.889 -50.643,-4.01c-6.746,3.117 -14.633,10.31 -19.718,17.984c-1.341,2.023 -2.759,4.483 -1.979,3.433c3.179,-4.283 4.144,-5.504 5.809,-7.36c9.062,-10.102 19.905,-14.8 34.18,-14.81c21.118,-0.015 38.162,10.031 47.013,27.713c4.09,8.17 6.067,16.367 6.064,25.148c-0.002,6.994 -1.14,12.135 -3.826,17.276l-1.414,2.705l1.359,-0.409c0.747,-0.225 1.597,-0.712 1.889,-1.082l-0.001,0Zm4.47,-1.831c4.341,-6.567 6.319,-15.42 5.508,-24.657c-1.297,-14.77 -7.904,-29.077 -17.519,-37.935c-12.652,-11.657 -32.021,-16.876 -49.83,-13.428c-10.449,2.023 -19.185,7.37 -26.548,16.247c-2.47,2.979 -6.137,8.199 -6.936,9.876l-0.422,0.885l0.523,-0.728c0.288,-0.4 1.26,-1.761 2.161,-3.024c10.604,-14.873 24.201,-21.548 42.335,-20.78c23.525,0.996 40.96,13.386 48.958,34.79c5.106,13.666 4.871,28.893 -0.595,38.484c-0.711,1.247 -1.292,2.292 -1.292,2.323c0,0.029 0.6,-0.081 1.333,-0.249c1.139,-0.26 1.478,-0.523 2.324,-1.803l-0,-0.001Zm3.083,-0.123c3.081,-3.377 5.697,-10.154 6.552,-16.974c0.451,-3.6 0.221,-11.376 -0.446,-15.093c-4.07,-22.659 -17.544,-38.99 -37.636,-45.614c-7.579,-2.499 -13.671,-3.38 -21.78,-3.15c-7.441,0.212 -12.23,1.117 -18.308,3.461c-8.423,3.248 -17.066,10.797 -23.485,20.511c-2.072,3.136 -3.122,4.899 -2.031,3.408c4.027,-5.495 5.464,-7.218 8.764,-10.503c8.595,-8.556 17.202,-12.392 30.147,-13.437c10.286,-0.83 21.914,1.334 31.011,5.771c10.442,5.094 18.321,12.984 23.703,23.738c4.504,8.999 6.57,17.458 6.6,27.028c0.025,8.591 -1.603,15.018 -5.289,20.858c-0.388,0.614 -0.705,1.182 -0.705,1.262c-0,0.081 0.431,0.071 0.959,-0.021c0.587,-0.102 1.341,-0.586 1.944,-1.246l-0,0.001Zm3.768,-0.819c4.87,-5.338 7.871,-15.995 7.39,-26.246c-0.871,-18.582 -10.167,-36.78 -23.8,-46.596c-17.399,-12.527 -43.492,-15.037 -61.119,-5.879c-7.313,3.8 -14.862,10.948 -20.525,19.436c-2.488,3.728 -2.001,3.331 1.265,-1.032c2.701,-3.609 6.951,-8.002 10.242,-10.589c8.542,-6.714 18.426,-9.834 31.181,-9.843c7.892,-0.005 13.531,0.846 20.216,3.053c16.183,5.341 27.869,16.475 34.367,32.745c3.014,7.548 4.441,14.915 4.441,22.934c-0,9.153 -1.963,16.605 -5.789,21.978c-0.549,0.772 -0.999,1.479 -0.999,1.573c0,0.094 0.432,0.086 0.959,-0.017c0.614,-0.12 1.396,-0.667 2.171,-1.516l-0,-0.001Zm3.421,-0.482c4.112,-4.863 6.607,-10.665 7.767,-18.065c0.629,-4.01 0.485,-13.305 -0.269,-17.423c-2.005,-10.939 -6.159,-20.896 -12.009,-28.786c-2.368,-3.193 -7.129,-8.099 -10.156,-10.463c-13.968,-10.914 -33.893,-15.44 -51.958,-11.805c-13.443,2.706 -24.423,10.505 -33.443,23.755c-3.002,4.41 -2.867,4.415 0.434,0.016c2.687,-3.582 7.053,-8.224 10.007,-10.639c7.531,-6.157 15.526,-9.416 26.102,-10.639c4.111,-0.476 14.551,-0.215 18.314,0.458c7.494,1.339 14.842,3.913 20.631,7.227c12.279,7.028 21.136,18.287 26.006,33.06c2.41,7.309 3.426,14.408 3.145,21.968c-0.308,8.247 -2.255,14.978 -5.855,20.229c-1.924,2.807 -1.873,2.656 -0.893,2.656c0.682,0 1.145,-0.329 2.177,-1.549l-0,-0Zm3.084,-0.289c3.452,-3.265 6.551,-9.059 8.078,-15.105c1.172,-4.643 1.578,-8.861 1.379,-14.34c-0.706,-19.424 -10.244,-38.654 -24.492,-49.378c-10.757,-8.095 -24.983,-12.647 -39.605,-12.671c-19.721,-0.032 -33.765,7.039 -45.715,23.016c-2.316,3.097 -4.196,5.879 -3.643,5.39c0.092,-0.081 1.147,-1.435 2.343,-3.008c11.622,-15.274 25.287,-22.077 44.342,-22.077c5.758,-0 9.741,0.373 14.351,1.345c10.8,2.277 19.538,6.441 27.486,13.096c13.42,11.238 22.164,31.934 21.392,50.632c-0.403,9.756 -2.745,16.598 -8.107,23.684l-0.726,0.959l0.643,-0c0.37,-0 1.334,-0.654 2.274,-1.543Zm3.301,-0.321c2.03,-1.96 4.695,-5.669 6.137,-8.541c6.233,-12.41 5.89,-29.9 -0.919,-46.848c-3.502,-8.717 -9.638,-17.791 -15.693,-23.209c-9.27,-8.294 -19.717,-13.233 -33.153,-15.675c-3.909,-0.711 -4.957,-0.779 -12.1,-0.789c-6.787,-0.009 -8.289,0.075 -11.362,0.633c-9.032,1.641 -16.118,4.647 -22.724,9.638c-5.15,3.891 -11.211,10.453 -15.232,16.493c-2.217,3.329 -1.921,3.084 1.021,-0.846c2.677,-3.575 7.079,-8.264 10.181,-10.844c10.382,-8.636 22.628,-12.441 38.263,-11.889c5.606,0.197 6.192,0.252 10.182,0.956c10.877,1.917 21.52,6.67 29.364,13.113c2.553,2.097 6.963,6.625 8.757,8.991c13.212,17.426 17.883,41.506 11.399,58.768c-1.2,3.195 -3.044,6.502 -4.92,8.827c-2.41,2.985 -2.378,2.923 -1.36,2.673c0.484,-0.119 1.456,-0.772 2.159,-1.451Zm1.473,0.858c1.14,-0.59 5.295,-5.007 6.688,-7.11c4.264,-6.436 6.258,-13.445 6.551,-23.024c0.301,-9.827 -1.194,-18.219 -4.98,-27.96c-7.993,-20.569 -23.222,-34.174 -44.379,-39.649c-18.388,-4.758 -37.568,-2.474 -50.446,6.006c-6.938,4.568 -13.724,11.341 -18.458,18.422c-1.576,2.357 -1.252,2.037 1.778,-1.756c10.153,-12.708 21.42,-19.178 37.191,-21.354c3.546,-0.49 14.275,-0.493 18.003,-0.006c19.156,2.505 34.826,11.473 44.858,25.671c6.598,9.34 10.985,20.797 12.563,32.81c0.646,4.919 0.433,14.186 -0.422,18.297c-1.596,7.683 -4.577,13.818 -8.999,18.519c-1.462,1.555 -1.446,1.908 0.052,1.133l0,0.001Zm2.801,-0.216c1.309,-0.682 4.462,-3.683 6.402,-6.094c8.593,-10.678 10.828,-27.754 6.03,-46.067c-4.686,-17.88 -14.988,-32.487 -29.046,-41.183c-18.837,-11.652 -44.719,-14.045 -64.09,-5.925c-9.227,3.868 -18.763,12.174 -26.347,22.949c-0.771,1.095 -1.343,1.992 -1.271,1.992c0.072,-0 1.111,-1.295 2.308,-2.878c2.671,-3.531 9.034,-9.974 12.227,-12.379c10.287,-7.751 21.199,-11.121 35.998,-11.118c9.323,0.001 15.671,0.975 23.807,3.651c14.713,4.839 26.177,13.744 34.194,26.56c3.767,6.022 7.538,15.118 9.237,22.282c2.228,9.386 2.561,19.51 0.908,27.533c-1.585,7.696 -5.642,15.505 -10.268,19.77c-1.326,1.222 -1.36,1.57 -0.089,0.907l0,0Zm3.667,-0.893c2.188,-1.505 5.644,-4.932 7.534,-7.47c10.875,-14.604 10.653,-39.847 -0.546,-62.177c-10.575,-21.085 -29.358,-33.79 -54.704,-37.001c-5.567,-0.705 -16.298,-0.483 -21.535,0.446c-9.448,1.676 -17.184,4.957 -24.417,10.356c-5.041,3.763 -11.632,10.733 -15.889,16.803c-1.54,2.196 -0.978,1.612 1.845,-1.918c2.618,-3.274 7.745,-8.458 10.695,-10.814c4.245,-3.392 10.53,-6.942 15.272,-8.628c9.967,-3.544 23.981,-4.529 35.878,-2.521c14.451,2.438 26.811,8.479 36.462,17.82c5.573,5.394 9.539,10.902 13.289,18.457c8.536,17.197 10.588,36.365 5.466,51.079c-1.967,5.65 -4.81,10.213 -8.768,14.068c-2.64,2.572 -2.823,3.042 -0.582,1.5Zm3.961,-1.172c10.467,-7.707 15.862,-19.873 15.883,-35.818c0.029,-21.786 -10.168,-44.566 -25.72,-57.463c-10.037,-8.325 -22.186,-13.618 -36.545,-15.923c-3.739,-0.6 -5.283,-0.685 -12.247,-0.673c-8.616,0.015 -11.831,0.376 -18.257,2.048c-13.56,3.528 -24.587,11.546 -34.81,25.31c-1.492,2.009 -0.63,1.154 1.983,-1.966c11.162,-13.328 23.959,-20.233 40.833,-22.031c5.458,-0.581 16.643,-0.218 21.908,0.711c21.979,3.879 38.582,15.192 49.014,33.394c11.302,19.722 13.689,44.461 5.866,60.794c-2.205,4.604 -5.521,8.921 -9.213,11.993c-2.421,2.015 -1.634,1.788 1.305,-0.376l0,-0Zm2.838,-0.328c9.941,-6.864 15.734,-17.578 17.168,-31.757c1.312,-12.968 -1.849,-28.433 -8.57,-41.924c-3.815,-7.659 -7.408,-12.758 -13.085,-18.569c-10.986,-11.246 -24.677,-17.904 -42.667,-20.75c-3.598,-0.569 -5.43,-0.678 -11.509,-0.682c-9.47,-0.007 -15.626,0.868 -22.923,3.261c-11.927,3.91 -23.297,12.731 -31.961,24.795c-1.376,1.916 -0.902,1.572 0.757,-0.549c2.208,-2.823 8.53,-9.199 11.334,-11.431c8.507,-6.768 17.139,-10.441 28.922,-12.305c4.692,-0.743 18.082,-0.755 22.945,-0.022c20.959,3.16 37.733,12.877 48.677,28.199c7.094,9.933 12.182,22.609 14.119,35.179c0.655,4.249 0.899,13.817 0.452,17.715c-1.526,13.324 -6.683,23.087 -15.807,29.928c-0.325,0.243 -0.479,0.447 -0.343,0.452c0.135,0.004 1.256,-0.688 2.491,-1.54l-0,-0Zm5.115,-2.032c8.133,-6.025 13.03,-14.166 15.511,-25.783c0.783,-3.666 0.819,-4.198 0.819,-11.952c-0,-7.08 -0.085,-8.602 -0.662,-11.924c-3.462,-19.911 -12.809,-37.272 -26.03,-48.349c-19.883,-16.658 -50.484,-22.367 -75.403,-14.068c-11.161,3.718 -22.639,12.57 -30.957,23.875c-1.511,2.055 -1.261,1.799 2.807,-2.867c4.032,-4.625 9.761,-9.537 14.508,-12.439c9.651,-5.9 19.646,-8.668 32.825,-9.09c18.786,-0.601 36.272,4.595 50.126,14.894c3.601,2.677 9.242,8.12 11.987,11.568c8.846,11.107 14.817,25.235 17.027,40.284c0.775,5.272 0.703,15.9 -0.138,20.511c-2.176,11.934 -6.672,19.988 -14.961,26.803c-1.84,1.513 -0.208,0.573 2.54,-1.463l0.001,-0Zm4.221,-1.347c11.445,-8.578 17.209,-22.793 16.607,-40.952c-0.638,-19.272 -8.416,-38.938 -20.919,-52.899c-12.903,-14.408 -32.788,-23.347 -54.612,-24.552c-17.89,-0.988 -33.317,3.214 -45.583,12.416c-5.079,3.81 -10.742,9.464 -14.584,14.559c-1.534,2.035 -1.584,2.137 -0.361,0.738c0.78,-0.893 2.815,-3.068 4.523,-4.834c12.842,-13.278 26.891,-19.259 46.635,-19.853c23.268,-0.701 44.797,7.472 59.333,22.523c5.411,5.603 9.538,11.558 13.261,19.133c3.809,7.751 5.831,13.612 7.378,21.383c1.272,6.387 1.59,9.584 1.587,15.95c-0.008,17.375 -5.41,29.805 -16.781,38.607l-0.885,0.685l0.98,-0.537c0.54,-0.296 2.079,-1.361 3.421,-2.367l0,0Zm3.599,-0.912c10.738,-7.987 16.478,-20.141 17.381,-36.804c0.742,-13.687 -3.8,-31.908 -11.259,-45.169c-12.285,-21.839 -31.464,-34.567 -58.538,-38.847c-3.742,-0.592 -5.315,-0.674 -12.542,-0.66c-8.833,0.019 -11.371,0.266 -18.03,1.76c-8.849,1.984 -16.452,5.448 -23.569,10.738c-5.246,3.9 -10.861,9.458 -14.929,14.777c-1.073,1.404 -0.991,1.345 0.612,-0.443c4.901,-5.465 10.131,-10.102 15.189,-13.468c3.506,-2.332 10.158,-5.585 14.019,-6.856c11.194,-3.683 25.71,-4.63 38.875,-2.535c15.13,2.406 28.686,8.501 39.479,17.749c14.506,12.431 24.587,32.633 26.995,54.1c0.432,3.846 0.361,13.061 -0.128,16.674c-1.213,8.976 -3.968,16.422 -8.302,22.442c-1.561,2.167 -5.498,6.243 -7.794,8.068c-1.793,1.425 0.11,0.282 2.541,-1.526l0,0Zm7.552,-4.178c7.069,-6.614 11.288,-15.002 13.367,-26.577c0.761,-4.232 0.933,-14.411 0.332,-19.582c-2.845,-24.485 -14.596,-45.989 -32.383,-59.263c-19.317,-14.416 -48.333,-19.842 -72.435,-13.546c-11.041,2.884 -20.197,8.169 -29.16,16.832c-2.498,2.415 -7.437,8.013 -8.73,9.896c-0.223,0.324 0.166,-0.074 0.864,-0.886c2.83,-3.289 10.078,-10.189 12.944,-12.322c10.732,-7.987 21.95,-11.857 37.498,-12.934c8.317,-0.576 19.244,0.381 27.222,2.386c14.978,3.762 27.706,10.792 37.483,20.702c10.456,10.598 18.644,26.365 22.047,42.452c1.127,5.329 1.554,9.024 1.723,14.925c0.39,13.544 -2.206,24.161 -8.054,32.947c-1.906,2.864 -5.826,7.162 -8.531,9.356c-0.65,0.527 -0.159,0.271 1.091,-0.568c1.25,-0.839 3.374,-2.557 4.722,-3.818l-0,0Zm2.707,0.007c2.42,-2.022 6.077,-6.153 7.715,-8.715c11.107,-17.38 10.695,-45.204 -1.038,-69.996c-10.24,-21.638 -26.998,-35.976 -50.303,-43.038c-9.996,-3.029 -22.478,-4.45 -32.611,-3.713c-15.783,1.148 -27.371,5.192 -38.159,13.315c-5.173,3.895 -11.344,9.947 -14.875,14.588l-1.348,1.77l1.848,-2.065c10.596,-11.845 21.789,-18.944 35.178,-22.308c6.38,-1.604 10.326,-2.085 18.451,-2.252c12.902,-0.266 21.953,1.055 32.831,4.792c19.853,6.819 34.775,19.792 44.463,38.656c5.185,10.095 8.534,20.937 9.891,32.019c0.491,4.013 0.484,14.69 -0.013,18.298c-1.848,13.454 -7.084,23.796 -15.83,31.268l-1.476,1.26l1.476,-0.969c0.811,-0.532 2.521,-1.842 3.798,-2.91l0.002,0Zm3.284,-0.634c8.22,-6.671 13.715,-16.695 15.798,-28.819c3.498,-20.36 -2.352,-45.218 -15.108,-64.194c-11.802,-17.555 -29.847,-29.244 -52.532,-34.026c-7.985,-1.683 -20.128,-2.385 -28.2,-1.63c-18.239,1.705 -32.188,8.194 -44.791,20.837c-1.949,1.955 -4.394,4.611 -5.434,5.903c-1.727,2.145 -1.6,2.043 1.476,-1.176c14.87,-15.563 30.54,-22.311 52.946,-22.801c10.365,-0.227 17.519,0.575 26.874,3.01c11.456,2.982 21.942,8.166 30.943,15.297c16.46,13.04 28.079,35.049 31.031,58.778c0.634,5.089 0.631,14.461 -0.004,19.183c-1.677,12.46 -5.891,21.564 -13.502,29.169c-3.499,3.495 -3.372,3.614 0.504,0.469l-0.001,-0Zm5.082,-2.105c6.787,-5.982 11.579,-14.174 14.119,-24.139c2.228,-8.74 2.49,-20.719 0.688,-31.426c-3.385,-20.1 -12.665,-38.443 -25.981,-51.355c-6.355,-6.161 -12.363,-10.349 -20.763,-14.471c-8.674,-4.255 -17.7,-7.018 -28.092,-8.598c-4.747,-0.721 -6.072,-0.8 -13.668,-0.817c-8.91,-0.02 -11.988,0.228 -18.15,1.461c-11.696,2.34 -21.142,6.684 -30.249,13.91c-2.769,2.197 -10.054,9.366 -12.101,11.909c-0.719,0.892 0.481,-0.171 2.667,-2.363c15.066,-15.109 30.434,-21.522 52.816,-22.039c20.185,-0.467 38.42,4.54 53.712,14.747c19.535,13.04 32.929,35.319 36.935,61.434c0.759,4.951 1.059,15.554 0.572,20.263c-1.449,14.032 -6.57,25.247 -15.148,33.174c-1.867,1.725 -1.958,1.853 -0.705,0.987c0.791,-0.546 2.298,-1.751 3.348,-2.677Zm3.805,-1.051c11.625,-9.902 17.716,-27.389 16.39,-47.054c-1.8,-26.701 -14.303,-52.131 -33.004,-67.13c-20.461,-16.409 -50.072,-23.333 -77.309,-18.077c-14.495,2.798 -26.008,9.05 -37.165,20.182c-2.609,2.604 -5.332,5.461 -6.05,6.35c-0.718,0.888 0.686,-0.386 3.121,-2.833c6.92,-6.952 12.792,-11.284 20.363,-15.021c20.959,-10.344 52.104,-9.955 76.141,0.951c11.664,5.292 22.398,13.51 29.992,22.96c13.557,16.873 21.554,40.738 20.818,62.123c-0.599,17.408 -5.954,30.268 -16.576,39.815c-1.738,1.561 -1.744,1.572 -0.331,0.587c0.791,-0.552 2.416,-1.836 3.61,-2.853l-0,-0Zm6.038,-3.315c5.505,-5.474 9.039,-11.22 11.436,-18.593c2.468,-7.589 3.299,-13.203 3.298,-22.274c-0,-9.37 -1.2,-17.56 -3.958,-27.03c-8.295,-28.474 -26.206,-49.033 -51.782,-59.438c-21.676,-8.819 -47.269,-9.825 -67.914,-2.669c-6.867,2.38 -14.361,6.637 -20.834,11.833c-3.149,2.528 -8.734,7.971 -11.33,11.043c-1.005,1.189 -0.163,0.46 2.219,-1.92c12.543,-12.534 25.976,-19.36 42.93,-21.814c29.254,-4.234 59.277,4.581 78.924,23.172c15.193,14.377 25.503,36.066 28.251,59.436c0.614,5.215 0.463,15.692 -0.297,20.677c-1.985,13.026 -6.897,23.126 -14.987,30.819c-2.145,2.039 -2.351,2.304 -1.142,1.467c0.812,-0.562 3.145,-2.682 5.186,-4.711l0,0.002Zm4.12,-1.171c7.696,-7.698 12.317,-17.673 14.359,-30.997c0.732,-4.772 0.721,-16.615 -0.021,-21.987c-2.948,-21.391 -11.423,-40.406 -24.601,-55.196c-11.763,-13.202 -29.45,-22.996 -48.952,-27.106c-8.347,-1.759 -11.932,-2.101 -21.954,-2.094c-7.343,0.004 -10.04,0.115 -12.837,0.528c-15.814,2.335 -27.418,7.174 -38.358,15.997c-3.603,2.905 -6.911,6.02 -9.742,9.173l-2.357,2.624l3.567,-3.412c14.084,-13.469 27.343,-19.592 47.332,-21.857c4.12,-0.467 15.756,-0.468 20.363,-0.002c13.107,1.326 24.649,4.626 35.621,10.186c15.316,7.761 26.461,18.331 35.466,33.634c6.433,10.933 10.982,23.94 13.07,37.376c0.575,3.701 0.667,5.456 0.678,12.985c0.012,8.653 -0.133,10.561 -1.209,15.937c-2.212,11.053 -7.7,21.298 -14.945,27.896l-1.836,1.672l1.918,-1.419c1.055,-0.781 3.052,-2.554 4.437,-3.939l0.001,0.001Zm3.343,-0.588c10.664,-10.281 15.913,-24.489 15.923,-43.1c0.005,-11.121 -1.684,-21.279 -5.352,-32.167c-7.395,-21.954 -19.808,-38.672 -37.09,-49.949c-15.542,-10.142 -35.59,-15.857 -55.63,-15.857c-20.854,0 -38.045,5.599 -52.236,17.012c-2.985,2.4 -8.795,7.982 -11.316,10.871c-1.248,1.43 -0.742,1.008 1.644,-1.371c6.956,-6.935 13.739,-11.878 21.617,-15.753c24.037,-11.824 59.589,-10.42 85.94,3.395c16.843,8.829 29.308,21.805 38.28,39.847c5.422,10.903 8.551,21.047 10.421,33.791c0.748,5.1 0.742,18.976 -0.009,23.697c-1.196,7.503 -3.081,13.562 -6.006,19.308c-2.186,4.294 -4.663,7.725 -8.357,11.577c-3.524,3.675 -2.111,2.829 2.172,-1.301l-0.001,0Zm-181.604,-8.866c0.332,-0.649 0.536,-1.18 0.455,-1.18c-0.081,-0 -0.419,0.531 -0.75,1.18c-0.331,0.649 -0.536,1.181 -0.455,1.181c0.081,-0 0.419,-0.532 0.75,-1.181Zm1.328,-4.131c0.252,-0.487 0.392,-0.886 0.311,-0.886c-0.081,0 -0.354,0.399 -0.606,0.886c-0.251,0.487 -0.391,0.885 -0.31,0.885c0.081,-0 0.354,-0.399 0.605,-0.885Zm2.509,-7.969c0.174,-0.324 0.249,-0.59 0.168,-0.59c-0.081,0 -0.29,0.266 -0.463,0.59c-0.174,0.325 -0.25,0.591 -0.169,0.591c0.081,-0 0.29,-0.266 0.464,-0.591Zm18.925,-58.064c0.367,-0.468 0.357,-0.479 -0.111,-0.112c-0.284,0.223 -0.517,0.456 -0.517,0.517c0,0.243 0.243,0.086 0.628,-0.405l0,-0Zm4.132,-11.805c0.367,-0.468 0.356,-0.478 -0.112,-0.111c-0.284,0.222 -0.516,0.455 -0.516,0.516c-0,0.243 0.242,0.087 0.628,-0.405l-0,0Zm1.585,-4.205c0.294,-0.325 0.468,-0.591 0.387,-0.591c-0.081,0 -0.388,0.266 -0.682,0.591c-0.294,0.324 -0.468,0.59 -0.387,0.59c0.081,-0 0.388,-0.266 0.682,-0.59Zm4.907,-12.617c0.368,-0.468 0.357,-0.478 -0.111,-0.111c-0.492,0.385 -0.648,0.628 -0.405,0.628c0.061,-0 0.294,-0.233 0.516,-0.517l0,0Z" style="fill:url(#_Radial2);fill-rule:nonzero;"/></g></g></g><defs><radialGradient id="_Radial2" cx="0" cy="0" r="1" gradientUnits="userSpaceOnUse" gradientTransform="matrix(106.823,0,0,206.231,106.823,206.231)"><stop offset="0" style="stop-color:#244083;stop-opacity:0.98"/><stop offset="0.5" style="stop-color:#1181a9;stop-opacity:1"/><stop offset="1" style="stop-color:#1e4988;stop-opacity:0.99"/></radialGradient></defs></svg>