<?xml version="1.0" encoding="UTF-8" standalone="no"?><!DOCTYPE svg PUBLIC "-//W3C//DTD SVG 1.1//EN" "http://www.w3.org/Graphics/SVG/1.1/DTD/svg11.dtd"><svg width="100%" height="100%" viewBox="0 0 1086 397" version="1.1" xmlns="http://www.w3.org/2000/svg" xmlns:xlink="http://www.w3.org/1999/xlink" xml:space="preserve" xmlns:serif="http://www.serif.com/" style="fill-rule:evenodd;clip-rule:evenodd;stroke-linejoin:round;stroke-miterlimit:2;"><g><path d="M719.601,353.04l-0,34.261l4.256,0l0,-38.214l-8.362,-0l-2.23,3.953l6.336,-0Z" style="fill:#14e3d5;fill-rule:nonzero;"/><path d="M748.894,387.96l12.671,-17.334c1.976,-2.736 3.548,-5.727 3.548,-9.173c0,-7.248 -5.981,-13.026 -13.177,-13.026c-7.198,0 -13.178,5.778 -13.178,13.026c0,6.944 5.373,12.62 12.366,12.62c1.166,-0 2.281,-0.202 3.294,-0.507l0.102,0.102l-8.818,12.113l3.192,2.179Zm3.042,-35.579c4.915,-0 8.919,4.004 8.919,8.921c0,4.966 -4.004,8.818 -8.919,8.818c-4.967,-0 -8.92,-3.852 -8.92,-8.818c-0,-4.917 3.953,-8.921 8.92,-8.921" style="fill:#14e3d5;fill-rule:nonzero;"/><path d="M775.807,367.231l4.257,-0l-0,-3.75l-4.257,-0l0,-8.566l-4.055,0l0,8.566l-2.484,-0l0,3.75l2.484,-0l0,20.07l4.055,0l0,-20.07Z" style="fill:#14e3d5;fill-rule:nonzero;"/><path d="M783.713,345.488l0,41.813l4.055,0l-0,-11.302c-0,-4.258 0.354,-9.427 5.93,-9.427c4.713,-0 5.018,3.446 5.018,7.299l-0,13.43l4.054,0l0,-14.14c0,-5.575 -1.521,-10.339 -8.109,-10.339c-2.94,-0 -5.119,1.267 -6.791,3.548l-0.102,-0.102l-0,-20.78l-4.055,-0Z" style="fill:#14e3d5;fill-rule:nonzero;"/><path d="M826.338,387.301l4.257,0l-0,-29.446l29.801,31.17l0,-39.938l-4.258,-0l0,29.598l-29.8,-31.22l-0,39.836Z" style="fill:#14e3d5;fill-rule:nonzero;"/><path d="M878.744,387.96c6.943,0 12.518,-5.524 12.518,-12.518c0,-6.995 -5.524,-12.62 -12.518,-12.62c-6.995,-0 -12.519,5.625 -12.519,12.62c-0,6.994 5.575,12.518 12.519,12.518Zm-0,-21.388c5.017,-0 8.463,4.004 8.463,8.819c0,4.865 -3.446,8.818 -8.463,8.818c-5.018,0 -8.464,-3.953 -8.464,-8.818c-0,-4.815 3.446,-8.819 8.464,-8.819" style="fill:#14e3d5;fill-rule:nonzero;"/><path d="M897.648,363.481l-4.612,-0l11.707,25.391l11.658,-25.391l-4.562,-0l-7.096,16.016l-7.095,-16.016Z" style="fill:#14e3d5;fill-rule:nonzero;"/><path d="M920.05,381.726l-4.713,13.178l2.736,1.115l5.727,-12.976l-3.75,-1.317Z" style="fill:#14e3d5;fill-rule:nonzero;"/><path d="M954.312,383.348l13.228,-15.56c1.977,-2.281 2.889,-4.966 2.889,-8.058c0,-6.64 -5.626,-11.303 -12.012,-11.303c-6.74,0 -11.657,5.12 -11.809,11.81l4.257,0c0.102,-4.461 3.092,-7.856 7.705,-7.856c4.155,-0 7.601,3.143 7.601,7.399c0,2.484 -1.064,4.562 -2.584,6.387l-17.892,21.134l24.734,0l0,-3.953l-16.117,-0Z" style="fill:#14e3d5;fill-rule:nonzero;"/><path d="M990.449,348.427c-9.681,0 -13.684,11.962 -13.684,19.817c-0,9.428 4.966,19.716 13.684,19.716c8.716,0 13.684,-10.288 13.684,-19.716c-0,-7.855 -4.004,-19.817 -13.684,-19.817Zm-0,3.954c7.196,-0 9.528,10.644 9.426,16.066c-0.102,5.373 -2.382,15.56 -9.426,15.56c-7.046,0 -9.326,-10.187 -9.428,-15.56c-0.101,-5.422 2.23,-16.066 9.428,-16.066" style="fill:#14e3d5;fill-rule:nonzero;"/><path d="M1016.75,383.348l13.228,-15.56c1.977,-2.281 2.889,-4.966 2.889,-8.058c0,-6.64 -5.625,-11.303 -12.012,-11.303c-6.74,0 -11.657,5.12 -11.808,11.81l4.256,0c0.102,-4.461 3.092,-7.856 7.705,-7.856c4.155,-0 7.601,3.143 7.601,7.399c0,2.484 -1.064,4.562 -2.584,6.387l-17.891,21.134l24.733,0l0,-3.953l-16.117,-0Z" style="fill:#14e3d5;fill-rule:nonzero;"/><path d="M1063.79,353.04l-0,-3.953l-15.205,-0l-5.524,18.296c2.179,-1.42 4.612,-2.433 7.247,-2.433c5.322,-0 9.528,3.852 9.528,9.275c0,5.575 -4.004,9.782 -9.629,9.782c-3.649,0 -6.741,-2.23 -8.464,-5.322l-3.396,2.433c2.535,4.308 6.69,6.842 11.709,6.842c7.804,0 14.038,-5.727 14.038,-13.633c0,-7.4 -5.169,-13.33 -12.722,-13.33l-2.28,0.203l2.484,-8.16l12.214,-0Z" style="fill:#14e3d5;fill-rule:nonzero;"/><path d="M713.277,317.445l9.906,-0c8.35,-0 14.718,-1.062 21.086,-6.722c5.874,-5.237 8.704,-12.1 8.704,-19.883c-0,-7.926 -2.759,-15.071 -8.846,-20.308c-6.296,-5.378 -12.806,-6.439 -20.802,-6.439l-10.048,0l0,53.352Zm5.943,-5.519l0,-42.314l4.317,0c6.298,0 11.675,0.849 16.558,5.165c4.599,4.034 6.935,9.906 6.935,15.992c-0,5.944 -2.265,11.533 -6.653,15.637c-4.881,4.599 -10.33,5.52 -16.84,5.52l-4.317,-0Z" style="fill:#fefefe;fill-rule:nonzero;"/><path d="M766.487,284.189l-5.66,-0l0,19.175c0,8.845 3.325,15.001 13.161,15.001c9.835,-0 13.161,-6.156 13.161,-15.001l0,-19.175l-5.661,-0l-0,18.538c-0,5.59 -0.637,10.402 -7.5,10.402c-6.863,0 -7.501,-4.812 -7.501,-10.402l0,-18.538Z" style="fill:#fefefe;fill-rule:nonzero;"/><path d="M813.4,288.504c7.005,0 11.18,5.378 11.18,12.03c-0,6.721 -3.822,12.595 -11.109,12.595c-7.076,0 -10.897,-6.157 -10.897,-12.666c0,-6.227 4.245,-11.959 10.826,-11.959Zm-16.205,28.941l5.662,-0l-0,-4.599l0.141,-0c2.689,3.608 6.864,5.519 11.463,5.519c9.765,-0 15.921,-8.28 15.921,-17.549c0,-9.411 -6.085,-17.547 -15.992,-17.547c-4.528,-0 -8.703,2.122 -11.392,5.661l-0.141,-0l-0,-29.861l-5.662,-0l0,58.376Z" style="fill:#fefefe;fill-rule:nonzero;"/><path d="M852.104,288.504c7.005,0 11.18,5.378 11.18,12.03c0,6.721 -3.821,12.595 -11.109,12.595c-7.076,0 -10.897,-6.157 -10.897,-12.666c-0,-6.227 4.246,-11.959 10.826,-11.959Zm16.558,-4.315l-5.661,-0l-0,4.741l-0.141,-0c-2.76,-3.539 -6.865,-5.661 -11.393,-5.661c-9.977,-0 -15.991,8.136 -15.991,17.618c0,9.198 6.156,17.478 15.92,17.478c4.67,-0 8.562,-1.84 11.464,-5.519l0.141,-0l-0,4.599l5.661,-0l-0,-33.256Z" style="fill:#fefefe;fill-rule:nonzero;"/><path d="M885.855,284.189l-5.66,-0l-0,33.256l5.66,-0l-0,-33.256Zm-2.83,-16.558c-2.193,-0 -4.033,1.84 -4.033,4.033c-0,2.264 1.84,4.033 4.033,4.033c2.193,0 4.033,-1.769 4.033,-4.033c0,-2.193 -1.84,-4.033 -4.033,-4.033" style="fill:#fefefe;fill-rule:nonzero;"/><path d="M902.979,309.661l-6.58,18.397l3.821,1.557l7.996,-18.113l-5.237,-1.841Z" style="fill:#fefefe;fill-rule:nonzero;"/><path d="M947.062,264.093l-5.945,0l0,33.398c0,6.085 0.568,10.968 5.238,15.426c3.608,3.537 8.773,5.448 13.797,5.448c5.378,-0 10.685,-2.123 14.364,-6.085c4.246,-4.388 4.67,-8.987 4.67,-14.789l-0,-33.398l-5.944,0l0,31.771c0,4.174 0.213,8.844 -2.618,12.241c-2.476,2.971 -6.651,4.741 -10.472,4.741c-3.892,-0 -8.42,-1.841 -10.755,-5.096c-2.477,-3.395 -2.335,-7.924 -2.335,-11.886l0,-31.771Z" style="fill:#fefefe;fill-rule:nonzero;"/><path d="M1020.51,302.302l6.298,15.143l6.58,-0l-23.986,-55.899l-24.625,55.899l6.51,-0l6.439,-15.143l22.784,0Zm-2.334,-5.518l-18.044,-0l9.128,-21.37l8.916,21.37Z" style="fill:#fefefe;fill-rule:nonzero;"/><path d="M1039.19,317.445l27.668,-0l-0,-5.519l-21.725,-0l0,-20.945l21.087,0l-0,-5.519l-21.087,-0l0,-15.85l21.725,0l-0,-5.519l-27.668,0l0,53.352Z" style="fill:#fefefe;fill-rule:nonzero;"/><path d="M468.157,49.615c0.463,0.386 1.291,6.139 1.375,6.973c1.196,11.99 -2.254,23.069 -14.21,27.848c-2.162,0.863 -4.376,1.359 -6.535,1.531c1.085,-2.651 1.353,-5.738 1.033,-8.94c-0.046,-0.47 -0.513,-3.718 -0.776,-3.936c-0.046,0.028 -0.409,3.086 -0.514,3.571c-0.166,0.784 -0.406,1.678 -0.716,2.582c-0.632,1.841 -1.555,3.719 -2.732,4.788c-1.222,1.11 -3.783,1.605 -4.895,0.132c-3.102,-4.115 8.869,-10.786 5.798,-22.085c-0.584,-2.15 -1.416,-4.55 -1.818,-4.65c-0.167,2.518 -2.871,7.788 -4.281,10.168c-1.926,3.243 -4.46,6.888 -6.028,8.863c-0.314,0.395 -0.661,0.862 -1.018,1.38c-0.046,-0.147 -0.091,-0.298 -0.13,-0.45c-1.645,-6.432 4.73,-17.017 8.538,-21.808c2.778,-3.497 7.267,-9.956 10.678,-15.704c2.501,-4.215 7.292,-13.555 7.588,-18.017c0.713,0.179 2.186,4.43 3.222,8.241c5.442,20.02 -15.771,31.841 -10.272,39.133c1.969,2.61 6.506,1.732 8.671,-0.236c2.085,-1.894 3.72,-5.222 4.84,-8.484c0.55,-1.6 0.977,-3.184 1.272,-4.575c0.183,-0.857 0.826,-6.279 0.91,-6.325Zm-29.296,-0.897c-5.062,7.348 -12.741,18.311 -11.147,27.445c0.167,0.963 1.627,5.314 1.631,5.354c-10.68,-1.744 -16.369,-17.057 -13.709,-27.033c3.028,-11.354 13.209,-23.921 18.098,-31.436c3.41,-5.243 7.19,-11.324 9.034,-17.375c0.84,-2.763 1.573,-5.627 1.607,-5.673c16.68,9.965 2.591,36.952 -5.514,48.718" style="fill:#14e3d5;"/><path d="M20.441,47.477c0,-3.879 -2.145,-6.115 -5.475,-6.115c-0.547,0 -1.049,0.137 -1.734,0.228l-8.44,1.643c-2.784,0.502 -4.792,2.92 -4.792,5.886l0,170.553c0,3.605 2.419,6.023 6.023,6.023l8.396,-0c3.604,-0 6.022,-2.418 6.022,-6.023l0,-172.195Z" style="fill:#fefefe;fill-rule:nonzero;"/><path d="M62.058,146.942c0,-11.087 3.058,-19.345 9.355,-24.684c6.113,-5.338 13.595,-7.984 22.402,-7.984c10.631,0 21.308,1.323 31.847,3.97l0,76.105c-9.718,9.718 -21.216,14.646 -34.539,14.646c-20.258,-0 -29.065,-13.597 -29.065,-32.668l0,-29.385Zm63.604,85.642c0,21.49 -12.273,36.912 -34.402,36.912c-8.121,-0 -17.202,-1.323 -27.33,-3.878c-1.05,-0.274 -2.008,-0.411 -2.92,-0.411c-4.016,0 -5.887,2.829 -4.837,7.756l1.871,8.123c0.41,2.006 2.008,3.74 4.014,4.379c10.129,3.103 19.849,4.563 29.202,4.563c34.676,-0 54.843,-23.315 54.843,-57.444l0,-126.158c0,-2.829 -1.871,-5.065 -4.516,-5.749c-19.802,-4.653 -35.772,-6.935 -47.772,-6.935c-32.668,-0 -52.197,20.897 -52.197,53.2l0,29.385c0,31.756 16.563,53.2 49.505,53.2c12.137,0 23.726,-4.288 34.539,-12.913l0,15.97Z" style="fill:#fefefe;fill-rule:nonzero;"/><path d="M212.59,138.867l55.482,84.136c1.049,1.597 3.057,2.692 4.928,2.692l11.224,-0c6.707,-0 8.715,-3.742 4.974,-9.354l-62.965,-93.809l55.345,-65.839c2.281,-2.692 2.007,-6.16 -0.685,-8.395l-6.387,-5.476c-1.369,-1.095 -2.692,-1.642 -4.016,-1.642c-1.734,0 -3.239,0.821 -4.563,2.418l-74.325,88.287l-0,-84.271c-0,-3.879 -2.145,-6.161 -5.476,-6.161c-0.546,0 -1.049,0.137 -1.734,0.274l-8.44,1.597c-2.784,0.548 -4.792,2.966 -4.792,5.887l0,170.461c0,3.605 2.42,6.023 6.024,6.023l8.396,-0c3.604,-0 6.022,-2.418 6.022,-6.023l-0,-55.847l20.988,-24.958Z" style="fill:#fefefe;fill-rule:nonzero;"/><path d="M328.08,118.244c10.54,-2.647 21.215,-3.97 31.893,-3.97c15.512,0 23.771,7.71 23.771,23.361l-0,82.037c-0,3.605 2.418,6.023 6.023,6.023l8.395,-0c3.605,-0 6.023,-2.418 6.023,-6.023l-0,-82.037c-0,-28.015 -16.289,-43.893 -44.212,-43.893c-12,-0 -28.015,2.282 -47.817,6.935c-2.647,0.684 -4.518,2.92 -4.518,5.749l-0,113.246c-0,3.605 2.419,6.023 6.024,6.023l8.395,-0c3.605,-0 6.023,-2.418 6.023,-6.023l-0,-101.428Z" style="fill:#fefefe;fill-rule:nonzero;"/><path d="M449.683,103.595c0,-3.605 -2.418,-6.024 -6.023,-6.024l-8.395,-0c-3.605,-0 -6.023,2.419 -6.023,6.024l0,116.076c0,3.605 2.418,6.022 6.023,6.022l8.395,0c3.605,0 6.023,-2.417 6.023,-6.022l0,-116.076Z" style="fill:#fefefe;fill-rule:nonzero;"/><path d="M491.301,146.942c-0,-11.087 3.057,-19.345 9.354,-24.684c6.113,-5.338 13.596,-7.984 22.402,-7.984c10.631,0 21.308,1.323 31.847,3.97l0,76.105c-9.718,9.718 -21.216,14.646 -34.539,14.646c-20.258,-0 -29.064,-13.597 -29.064,-32.668l-0,-29.385Zm63.603,85.642c0,21.49 -12.273,36.912 -34.402,36.912c-8.121,-0 -17.201,-1.323 -27.33,-3.878c-1.049,-0.274 -2.008,-0.411 -2.92,-0.411c-4.016,0 -5.887,2.829 -4.837,7.756l1.871,8.123c0.41,2.006 2.008,3.74 4.015,4.379c10.129,3.103 19.848,4.563 29.201,4.563c34.676,-0 54.843,-23.315 54.843,-57.444l0,-126.158c0,-2.829 -1.87,-5.065 -4.516,-5.749c-19.802,-4.653 -35.772,-6.935 -47.772,-6.935c-32.668,-0 -52.197,20.897 -52.197,53.2l0,29.385c0,31.756 16.563,53.2 49.505,53.2c12.137,0 23.726,-4.288 34.539,-12.913l0,15.97Z" style="fill:#fefefe;fill-rule:nonzero;"/><path d="M620.844,34.29c0,-3.878 -2.145,-6.16 -5.476,-6.16c-0.546,0 -1.048,0.137 -1.733,0.274l-8.441,1.597c-2.784,0.548 -4.792,2.92 -4.792,5.886l0,183.785c0,3.605 2.42,6.023 6.024,6.023l8.396,-0c3.604,-0 6.022,-2.418 6.022,-6.023l0,-101.428c10.54,-2.647 21.216,-3.97 31.893,-3.97c15.513,0 23.771,7.71 23.771,23.361l0,82.037c0,3.605 2.419,6.023 6.024,6.023l8.395,-0c3.605,-0 6.023,-2.418 6.023,-6.023l-0,-82.037c-0,-28.015 -16.289,-43.893 -44.213,-43.893c-8.669,-0 -19.209,1.232 -31.893,3.605l0,-63.057Z" style="fill:#fefefe;fill-rule:nonzero;"/><path d="M787.754,104.51c0.776,-4.289 -1.46,-7.21 -5.886,-7.21l-28.744,0l-0,-33.26c-0,-3.879 -2.008,-6.161 -5.339,-6.161c-0.685,-0 -1.46,0.137 -2.145,0.411l-8.441,2.145c-2.783,0.639 -4.517,3.056 -4.517,5.885l0,30.98l-14.463,0c-3.605,0 -5.978,2.419 -5.978,5.978l0,7.209c0,3.559 2.373,5.977 5.978,5.977l14.463,-0l0,75.559c0,24.591 12.548,37.778 37.277,37.778c3.468,0 8.442,-0.685 14.738,-1.871c2.373,-0.548 4.244,-2.554 4.654,-4.927l1.094,-7.849c0.777,-4.516 -1.504,-7.208 -5.52,-7.208c-0.502,0 -1.049,0.137 -1.597,0.137c-5.064,0.821 -9.627,1.186 -13.643,1.186c-11.361,-0 -16.561,-7.893 -16.561,-18.615l-0,-74.19l27.148,-0c2.919,-0 5.338,-1.871 5.885,-4.791l1.597,-7.163Z" style="fill:#fefefe;fill-rule:nonzero;"/><path d="M919.302,50.945c1.186,-5.613 -1.87,-9.492 -7.757,-9.492l-93.03,0c-4.7,0 -7.895,3.24 -7.895,7.894l-0,168.408c-0,4.7 3.195,7.893 7.895,7.893l90.75,0c3.878,0 6.935,-2.554 7.756,-6.296l2.281,-11.498c1.186,-5.612 -1.87,-9.49 -7.757,-9.49l-68.986,-0l0,-50.965l58.675,0c3.879,0 6.981,-2.556 7.756,-6.296l2.282,-11.589c1.186,-5.613 -1.871,-9.492 -7.757,-9.492l-60.956,0.001l0,-51.193l66.706,-0c3.878,-0 6.935,-2.556 7.756,-6.297l2.281,-11.588Z" style="fill:#fefefe;fill-rule:nonzero;"/><path d="M1053.22,146.258c0,33.855 -20.988,52.061 -54.159,52.061l-28.88,-0l-0,-131.451c6.935,-0.548 18.842,-0.822 35.587,-0.822c14.007,0 25.505,4.016 34.357,12.046c8.67,8.168 13.095,21.034 13.095,38.828l0,29.338Zm-107.632,-105.352c-4.426,0.274 -7.347,3.468 -7.347,7.894l0,169.001c0,4.654 3.195,7.894 7.895,7.894l52.925,-0c27.421,-0 48.547,-7.347 63.65,-21.902c14.965,-14.554 22.448,-33.855 22.448,-57.535l-0,-29.338c-0,-49.915 -29.932,-78.433 -79.391,-78.433c-17.52,0 -37.595,0.823 -60.18,2.419" style="fill:#fefefe;fill-rule:nonzero;"/></g></svg>